<svg width="200" height="200" viewBox="0 0 200 200" fill="none" xmlns="http://www.w3.org/2000/svg">
<path d="M176.303 15.1723C175.39 16.1009 175.289 16.3331 175.492 17.527C175.627 18.2566 176.134 19.8154 176.675 20.9762C177.622 23.0324 177.656 23.0987 177.352 26.8132C176.98 31.5226 176.844 32.5507 176.405 34.408C176.202 35.2371 175.864 36.7958 175.661 37.8903C175.153 40.8088 174.037 44.5233 173.665 44.6228C173.462 44.6891 173.327 45.0207 173.327 45.3856C173.327 46.3142 172.008 48.7352 171.636 48.5031C171.467 48.4036 170.486 47.2428 169.472 45.9162C165.819 41.1404 157.331 33.3799 150.702 28.7036C147.726 26.6142 137.175 21.4405 133.083 20.0475C123.58 16.8637 112.048 14.8406 103.661 14.8738C100.955 14.907 98.6218 15.0065 98.4188 15.106C98.2498 15.2386 97.3367 15.3381 96.3897 15.3713C94.9693 15.4044 91.114 15.7693 89.9642 16.0014C89.7951 16.0346 89.0173 16.1672 88.2733 16.2999C85.534 16.7974 85.3987 16.8305 85.3987 17.4938C85.3987 17.8255 85.2634 18.1903 85.0943 18.2898C84.959 18.3893 84.8914 18.124 84.959 17.6597L85.1281 16.8637L83.3357 17.3612C82.3212 17.6265 80.0891 18.2898 78.3644 18.8536C76.6396 19.3842 75.0502 19.7491 74.8811 19.6164C74.6782 19.5169 74.2723 19.6496 73.968 19.9149C73.6636 20.1802 72.3447 20.7772 71.0258 21.2746C69.7406 21.7721 68.3541 22.3028 67.9821 22.4354C63.3151 24.1932 56.1117 28.4051 51.0728 32.3849C46.6425 35.8341 37.7144 44.3906 37.7144 45.1534C37.7144 45.4187 37.5115 45.7835 37.241 45.9162C36.6322 46.2479 30.4434 54.5059 28.8539 57.126C28.1776 58.2204 27.3321 59.8787 26.9601 60.7741C26.5881 61.7027 25.9793 62.963 25.5735 63.6263C25.1677 64.2896 24.4913 65.7157 24.0517 66.777C21.4815 72.9788 20.8727 74.5044 21.008 74.6371C21.0756 74.7034 20.9066 75.3004 20.636 75.9968C20.1625 77.1244 19.9596 77.9867 19.6214 80.1756C19.5538 80.6399 19.4862 81.0711 19.4524 81.1705C19.4185 81.27 19.3847 81.469 19.4185 81.6017C19.4524 81.7344 19.2833 82.1987 19.0803 82.5966C18.8436 82.9946 18.6407 83.7574 18.5731 84.3212C18.5054 85.3493 18.2011 87.2066 17.8629 88.9643C17.7614 89.495 17.66 90.3572 17.6261 90.8547C17.6261 91.3854 17.4909 91.7833 17.3556 91.7833C17.2203 91.7833 17.1189 92.9441 17.1527 94.337C17.1527 95.7631 17.1189 97.0566 17.0512 97.2556C17.0174 97.4214 17.085 97.9189 17.2203 98.35C17.3894 98.8143 17.3218 99.2786 17.085 99.5439C16.8145 99.9087 16.8483 100.141 17.2541 100.539C17.5585 100.837 17.66 101.07 17.4571 101.07C17.2541 101.07 17.085 101.302 17.085 101.567C17.085 101.832 17.2541 102.064 17.4571 102.064C17.66 102.064 17.5585 102.33 17.2203 102.628C16.713 103.159 16.713 103.192 17.288 103.391C17.6938 103.557 17.7614 103.69 17.4909 103.855C17.2541 103.988 17.085 104.32 17.085 104.585C17.085 104.917 17.2541 104.983 17.5247 104.85C17.7952 104.685 17.7952 104.784 17.4571 105.149C17.1189 105.58 17.085 106.011 17.3556 107.039C17.5247 107.769 17.6261 108.664 17.5247 109.029C17.4232 109.394 17.4909 109.692 17.6261 109.692C17.7952 109.692 17.9305 110.256 17.9643 110.92C17.9643 111.616 18.2349 113.307 18.5393 114.634C18.9451 116.425 19.0127 117.188 18.7422 117.354C18.4716 117.519 18.4716 117.619 18.7422 117.685C18.9451 117.751 19.1818 118.514 19.2494 119.41C19.3171 120.272 19.5538 121.167 19.7567 121.433C19.9935 121.698 20.1287 122.03 20.0949 122.162C20.0273 122.494 20.0949 122.726 21.5491 126.109C22.124 127.369 22.8004 128.63 23.1048 128.829C23.5444 129.193 23.5444 129.26 23.0371 129.459C22.496 129.658 22.5298 129.724 23.1386 130.321C23.5444 130.653 23.8488 131.117 23.8488 131.316C23.8488 131.813 27.8394 139.541 29.395 141.995C30.0714 143.09 30.6125 144.184 30.6125 144.416C30.6125 144.648 30.9169 144.98 31.2551 145.146C31.5932 145.345 32.3034 146.207 32.8445 147.069C33.3518 147.965 35.2118 150.286 37.0042 152.309C38.7966 154.299 40.9948 156.82 41.8741 157.848C42.7872 158.909 44.1738 160.236 45.0192 160.833C45.8309 161.397 46.5073 161.994 46.5073 162.126C46.5073 162.557 44.14 163.453 40.8257 164.282C39.0333 164.746 35.9558 165.542 33.9944 166.073C30.8831 166.902 27.9408 167.399 25.2692 167.532C24.8295 167.565 24.3561 167.797 24.2208 168.03C24.0179 168.295 23.8488 168.328 23.7135 168.129C23.5782 167.93 21.7182 167.797 19.0127 167.797C12.8915 167.797 9.81404 167.2 6.60127 165.376C3.25323 163.486 2.00194 159.009 3.3885 153.769C4.4707 149.723 7.85256 141.929 9.67877 139.342C10.186 138.579 10.5242 137.883 10.4228 137.75C10.2875 137.65 10.389 137.551 10.5919 137.551C11.0315 137.551 13.365 133.836 13.365 133.14C13.365 132.842 13.6694 132.543 14.0076 132.41C14.7177 132.211 15.1574 131.316 14.9883 130.553C14.9207 130.288 15.0559 130.122 15.2927 130.155C15.4956 130.188 16.0029 129.591 16.4087 128.762C16.8145 127.966 17.2541 127.27 17.4232 127.203C17.7952 127.071 17.4571 125.612 17.0512 125.612C16.916 125.612 16.7469 126.01 16.6792 126.507C16.6116 127.17 16.3749 127.469 15.7999 127.535C15.3941 127.601 14.8868 127.966 14.6839 128.364C14.481 128.762 13.7708 129.658 13.0945 130.321C12.4519 131.017 11.877 131.813 11.8432 132.145C11.8432 132.477 11.3359 133.206 10.7271 133.803C9.98314 134.533 9.71259 135.03 9.88168 135.428C10.017 135.793 9.98314 135.926 9.74641 135.793C9.3744 135.561 7.95402 137.02 7.95402 137.617C7.95402 137.783 7.58201 138.413 7.14237 138.977C6.73655 139.574 5.78963 141.232 5.07944 142.692C3.32087 146.34 3.21941 146.572 3.05032 147.401C2.98268 147.799 2.77977 148.396 2.57686 148.761C1.42702 150.85 0.649195 154.332 1.19029 154.963C1.52848 155.361 1.49466 155.46 1.08884 155.46C0.311009 155.46 0.27719 161.629 1.05502 162.458C1.39321 162.823 1.46084 163.088 1.22411 163.221C0.78447 163.486 1.08884 164.282 2.17103 165.741C3.21941 167.134 3.9296 167.665 5.9249 168.627C6.90564 169.091 7.61583 169.223 7.95402 169.058C8.32602 168.859 8.63039 168.958 8.90094 169.389C9.13767 169.787 9.84786 170.086 10.8962 170.218C11.7755 170.318 12.7563 170.55 13.0606 170.716C13.365 170.882 14.8192 170.981 16.2734 170.981C17.7276 170.981 19.3509 171.147 19.8582 171.346C20.3655 171.545 20.8727 171.578 20.9404 171.412C21.0418 171.28 22.6989 171.048 24.6604 170.948C26.6219 170.849 28.7863 170.616 29.4965 170.417C30.2067 170.252 31.6947 169.92 32.8107 169.721C38.8981 168.56 47.0484 166.404 48.5364 165.542C49.4157 165.012 49.5171 165.012 50.5993 165.741C51.2419 166.172 52.5946 167.333 53.6768 168.328C54.7252 169.323 55.7397 170.019 55.9427 169.92C56.1456 169.787 56.3147 169.82 56.3147 169.953C56.3147 170.119 56.7881 170.417 57.3292 170.616C58.4791 171.048 58.6481 171.678 57.6674 171.943C57.2954 172.043 56.991 172.341 56.991 172.606C56.991 172.938 56.8219 172.971 56.3485 172.739C55.9088 172.507 55.5368 172.54 55.0972 172.872C54.7252 173.137 54.6237 173.369 54.7928 173.369C54.9957 173.369 54.6914 173.601 54.1503 173.867C53.4063 174.265 53.1019 174.298 52.899 173.999C52.7299 173.701 52.4932 173.734 52.0535 174.165C51.7491 174.497 51.208 174.663 50.836 174.596C50.4979 174.497 49.9568 174.663 49.6524 174.961C49.348 175.26 48.9422 175.525 48.7393 175.525C47.8262 175.558 46.1691 176.089 46.1691 176.354C46.1691 176.52 45.9323 176.586 45.628 176.453C45.256 176.321 44.884 176.487 44.5796 176.885C44.2076 177.415 43.9709 177.448 43.1254 177.117C42.3137 176.818 42.1108 176.818 42.1108 177.183C42.1108 177.714 40.9272 178.145 40.4199 177.846C40.2508 177.747 40.0817 177.946 40.0817 178.311C40.0817 178.709 39.845 179.007 39.5744 179.007C38.9995 179.007 38.8981 178.477 39.4053 178.244C39.6083 178.145 39.5744 178.112 39.3377 178.145C38.4922 178.311 38.8642 179.173 39.7435 179.073C40.217 179.04 41.0286 178.941 41.5697 178.908C42.1108 178.874 42.6181 178.642 42.7196 178.41C42.821 178.045 42.7196 178.012 42.077 178.344C41.2992 178.676 41.2992 178.676 41.9079 178.211C42.3814 177.846 42.6858 177.78 42.9901 178.045C43.2945 178.278 43.6327 178.278 44.1061 178.045C44.4781 177.846 44.9854 177.747 45.256 177.846C46 178.145 47.6233 177.415 47.4204 176.885C47.2851 176.52 47.488 176.453 48.2658 176.586C48.8069 176.652 49.8891 176.487 50.6331 176.188C51.3771 175.89 52.0873 175.724 52.155 175.823C52.2564 175.923 52.899 175.79 53.5753 175.525C54.2517 175.26 55.4692 174.895 56.3147 174.663C57.1601 174.464 57.938 174.132 58.0394 173.966C58.1747 173.767 58.7496 173.601 59.3583 173.535C59.9671 173.502 60.5758 173.27 60.7111 173.037C61.0493 172.507 64.0591 173.435 65.953 174.696C66.697 175.193 68.0835 175.856 69.0305 176.155C69.9774 176.453 71.8036 177.15 73.0887 177.681C74.9149 178.443 75.5236 178.543 75.8956 178.244C76.2676 177.946 76.3353 177.946 76.1662 178.244C75.8956 178.675 76.4029 178.841 81.5095 180.102C86.5485 181.362 94.1577 182.589 97.0661 182.655C100.076 182.688 108.835 182.589 109.917 182.489C115.633 181.959 122.227 180.898 123.106 180.367C123.309 180.267 123.749 180.168 124.121 180.135C126.421 180.002 135.924 176.851 135.619 176.321C135.518 176.188 135.721 176.155 136.093 176.254C136.431 176.321 137.615 175.956 138.731 175.392C139.88 174.862 140.861 174.497 140.997 174.596C141.098 174.729 141.199 174.629 141.199 174.43C141.199 174.198 142.518 173.402 144.175 172.639C147.726 170.948 150.5 169.323 151.852 168.03C152.427 167.532 153.036 167.068 153.205 167.035C153.949 166.902 156.418 165.012 156.418 164.58C156.418 164.315 156.722 164.083 157.094 164.083C158.312 164.083 169.032 152.973 171.941 148.694C172.211 148.33 173.057 147.169 173.801 146.174C174.545 145.179 175.492 143.786 175.864 143.123C176.236 142.426 177.047 141.033 177.69 140.005C178.298 138.977 178.84 137.783 178.84 137.352C178.84 136.921 178.941 136.656 179.11 136.755C179.55 136.987 181.105 133.87 183.642 127.767C184.758 125.048 185.874 121.466 186.178 119.476C186.347 118.547 186.787 116.624 187.193 115.165C187.666 113.44 187.801 112.478 187.565 112.412C187.294 112.312 187.294 112.113 187.565 111.616C187.768 111.251 188.004 109.958 188.106 108.731C188.174 107.537 188.376 106.177 188.512 105.713C188.816 104.751 188.782 93.0104 188.444 90.8216C188.207 89.1965 188.816 87.6377 190.744 85.1503C191.352 84.3212 191.894 83.4589 191.894 83.2268C191.927 83.0278 192.266 82.4971 192.705 82.0992C193.348 81.4359 194.159 79.0812 194.836 75.8642C195.005 75.1014 194.971 75.1014 194.531 75.5988C194.261 75.9305 193.99 76.0963 193.889 76.03C193.787 75.9305 193.618 76.428 193.517 77.1576C193.314 78.7495 192.367 80.0098 191.42 80.0098C190.98 80.0098 190.778 80.2088 190.845 80.6067C190.913 80.9052 190.778 81.1705 190.575 81.1705C190.372 81.1705 190.304 81.3364 190.406 81.5022C190.541 81.7012 190.135 82.3313 189.526 82.9283C188.918 83.4921 188.478 83.9896 188.579 83.9896C188.647 83.9896 188.444 84.3212 188.14 84.7524C187.599 85.5152 187.599 85.482 187.362 83.4921C187.227 82.3645 186.787 80.1424 186.381 78.4842L185.637 75.5325L186.652 75.4993L187.7 75.433L186.584 75.234C185.502 75.035 185.4 74.9355 184.352 71.7185C182.458 66.0805 179.009 59.3148 175.12 53.5773L174.274 52.3834L174.984 50.8578C175.356 50.0287 175.83 49.3322 176.033 49.3322C176.202 49.3322 176.371 48.9342 176.337 48.4036C176.303 47.9061 176.675 46.5463 177.149 45.3192C177.926 43.2962 178.772 40.046 179.245 37.3928C179.347 36.7627 179.55 35.9336 179.651 35.5687C180.057 34.3085 180.158 32.9155 180.26 27.3438C180.361 22.3359 180.463 21.7058 181.072 20.943C181.849 19.948 182.018 19.3179 181.376 19.6827C181.038 19.8817 181.038 19.8154 181.376 19.4506C182.255 18.522 181.376 15.7693 179.82 14.5753C178.873 13.8457 177.419 14.111 176.303 15.1723ZM102.308 16.6647C102.308 16.93 102.24 17.1622 102.173 17.1622C102.105 17.1622 101.97 16.93 101.835 16.6647C101.733 16.3994 101.801 16.1672 101.97 16.1672C102.173 16.1672 102.308 16.3994 102.308 16.6647ZM92.602 17.2617C92.7035 17.527 92.5682 17.726 92.2977 17.726C92.0271 17.726 91.8242 17.527 91.8242 17.2617C91.8242 17.0295 91.9595 16.8305 92.1286 16.8305C92.2977 16.8305 92.5006 17.0295 92.602 17.2617ZM106.535 17.1622C106.637 17.328 106.501 17.4938 106.231 17.4938C105.927 17.4938 105.69 17.328 105.69 17.1622C105.69 16.9632 105.825 16.8305 105.994 16.8305C106.197 16.8305 106.434 16.9632 106.535 17.1622ZM116.681 17.4938C116.782 17.6597 116.715 17.8255 116.546 17.8255C116.343 17.8255 116.174 17.6597 116.174 17.4938C116.174 17.2948 116.241 17.1622 116.309 17.1622C116.41 17.1622 116.579 17.2948 116.681 17.4938ZM86.5485 18.0245C86.65 18.2898 86.6161 18.4225 86.4132 18.323C86.2103 18.2235 86.075 17.9913 86.075 17.7923C86.075 17.328 86.3118 17.4275 86.5485 18.0245ZM97.9116 17.8255C97.9116 17.9913 97.7425 18.1571 97.5396 18.1571C97.3705 18.1571 97.3028 17.9913 97.4043 17.8255C97.5057 17.6265 97.6748 17.4938 97.7763 17.4938C97.8439 17.4938 97.9116 17.6265 97.9116 17.8255ZM89.7951 19.1521C89.7951 19.3179 89.626 19.4837 89.4231 19.4837C89.254 19.4837 89.1864 19.3179 89.2878 19.1521C89.3893 18.9531 89.5584 18.8204 89.6598 18.8204C89.7275 18.8204 89.7951 18.9531 89.7951 19.1521ZM80.495 19.8154C80.5964 19.9812 80.5288 20.147 80.3597 20.147C80.1568 20.147 79.9877 19.9812 79.9877 19.8154C79.9877 19.6164 80.0553 19.4837 80.123 19.4837C80.2244 19.4837 80.3935 19.6164 80.495 19.8154ZM118.71 20.147C118.811 20.3129 118.676 20.4787 118.372 20.4787C118.067 20.4787 117.932 20.3129 118.034 20.147C118.135 19.948 118.304 19.8154 118.372 19.8154C118.439 19.8154 118.609 19.948 118.71 20.147ZM110.763 20.6113C112.623 20.8103 120.232 22.1369 123.445 22.8334C127.165 23.6625 136.871 27.1117 138.663 28.2393C139.035 28.4714 139.745 28.7699 140.286 28.9026C141.538 29.2011 142.552 30.0965 142.315 30.6603C142.146 31.0583 142.214 31.0915 142.755 30.7598C143.33 30.4282 143.871 30.6935 146.813 32.6502C149.992 34.7396 150.872 35.3697 154.524 38.3214C157.432 40.6761 164.23 47.1433 164.906 48.2046C165.312 48.8679 165.786 49.2327 165.988 49.1C166.225 49.0005 166.293 49.0005 166.158 49.1664C166.022 49.299 166.563 50.095 167.375 50.9573C169.81 53.4778 170.52 54.4396 170.385 54.9702C170.317 55.2356 169.607 56.6948 168.829 58.2204C167.713 60.3761 167.51 61.0063 167.848 61.2384C168.221 61.4374 168.187 61.5369 167.679 61.6696C167.307 61.7691 166.259 63.4273 164.906 66.1137C162.235 71.3537 161.321 72.7798 160.949 72.1497C160.78 71.9175 159.935 70.3256 159.056 68.6342C156.147 63.1288 152.258 57.9551 148.301 54.4728C148.098 54.2738 147.151 53.312 146.171 52.2507C144.547 50.5261 140.726 47.5081 137.141 45.1202C135.484 44.0258 127.672 39.7144 127.334 39.7144C127.232 39.7144 125.846 39.1837 124.29 38.5536C122.734 37.9234 120.908 37.2933 120.266 37.1938C119.589 37.0943 117.831 36.63 116.343 36.1989C114.145 35.5356 109.004 34.6401 106.366 34.408C100.719 33.9768 91.8242 34.3416 88.1042 35.2039C80.0891 37.0943 72.108 40.4771 66.6293 44.3574C65.3442 45.2861 63.0446 46.8448 61.5565 47.8066C60.0685 48.8016 57.6336 50.8578 56.1456 52.3834C53.3386 55.2356 49.5509 59.8787 49.5509 60.5088C49.5509 60.7078 49.348 61.0394 49.1113 61.2384C48.8407 61.4374 48.1644 62.5319 47.5895 63.6595C44.4105 70.0271 43.3621 73.012 42.7872 77.1244C41.6036 85.7805 41.1639 89.3291 41.2654 89.495C41.333 89.5944 41.4006 90.7884 41.4345 92.1481C41.5021 94.934 41.9756 98.549 42.4828 99.7098C42.7534 100.307 42.6858 100.572 42.2123 100.97C41.705 101.368 41.705 101.434 42.1447 101.302C42.5843 101.169 42.7534 101.434 42.9225 102.728C43.0578 103.623 43.2945 104.452 43.4636 104.552C43.6665 104.651 43.8018 105.016 43.8018 105.315C43.8018 107.305 48.9422 117.95 51.1742 120.637C51.8844 121.466 52.8652 122.759 53.4063 123.522C55.4016 126.408 62.3682 132.643 67.2381 135.826C69.7745 137.518 72.277 139.043 72.7505 139.209C73.9003 139.64 77.2484 141.133 78.2968 141.697C79.4804 142.294 85.3649 144.184 86.1089 144.184C86.4809 144.184 86.7514 144.283 86.7514 144.449C86.7514 144.681 83.4034 146.804 82.2535 147.235C81.9154 147.368 81.0023 147.932 80.2244 148.462C79.4466 148.96 77.316 150.187 75.4898 151.115L72.1756 152.807L69.9097 151.513C68.6585 150.817 67.2719 149.888 66.7984 149.49C66.325 149.092 65.581 148.495 65.1075 148.197C64.634 147.932 63.6871 147.169 63.0107 146.539C61.2184 144.947 60.4067 144.449 60.0347 144.681C59.8318 144.781 59.6965 144.681 59.6965 144.383C59.6965 144.118 58.0056 142.227 55.9427 140.138C50.9375 135.13 46.4058 128.663 42.9901 121.632C41.333 118.249 39.0672 111.019 39.0672 109.195C39.0672 108.565 38.8304 107.404 38.5937 106.641C37.1733 102.562 37.3762 92.0155 39.0333 82.663C39.2024 81.7344 39.2363 79.8108 39.0672 78.3515C38.9319 76.8923 38.7966 75.9968 38.7628 76.3616C38.7628 76.6933 38.357 77.2903 37.8835 77.6882C37.41 78.053 36.9704 78.6832 36.8689 79.1143C36.8013 79.5123 36.6322 80.0429 36.4631 80.2751C36.3278 80.4741 36.1588 81.6349 36.0911 82.8288C35.8206 87.5714 35.4824 91.9492 35.3471 91.9492C35.3471 91.9492 35.2795 93.7069 35.2457 95.8626C35.178 99.1791 35.2457 99.7098 35.6853 99.5771C36.1249 99.4444 36.0911 99.4776 35.6515 99.8093C35.2457 100.141 35.178 100.771 35.2457 102.529C35.3133 103.789 35.5162 105.016 35.6853 105.215C35.8544 105.447 35.922 105.713 35.8206 105.812C35.2795 106.31 36.8013 114.037 37.9173 116.591C38.1879 117.188 38.3908 117.917 38.3908 118.216C38.3908 119.576 42.3814 127.668 44.7487 131.117C51.0051 140.27 56.4837 145.776 65.581 152.11C67.0013 153.072 68.1512 153.968 68.1512 154.1C68.1512 154.432 64.8031 155.891 61.2184 157.118C59.5612 157.715 56.8896 158.71 55.3001 159.307C53.7106 159.937 52.1888 160.435 51.8844 160.435C51.3771 160.435 45.2898 154.565 42.3814 151.281C36.1588 144.283 32.1682 138.048 28.2452 129.26C26.9263 126.308 26.8925 126.109 27.4674 125.678C28.0423 125.247 28.0423 125.247 27.3997 125.346C26.8248 125.446 26.5543 124.981 25.6412 122.295C24.3561 118.481 24.1531 117.718 23.3415 113.672C23.0709 112.312 22.7666 110.356 22.6651 109.361C22.5298 108.366 22.3608 107.172 22.2593 106.708C22.1578 106.243 22.0564 105.248 22.0564 104.452C22.0226 103.69 21.8873 103.059 21.752 103.059C21.5829 103.059 21.6167 102.761 21.8197 102.396C22.0902 101.932 22.0564 101.567 21.752 101.07C21.4477 100.572 21.4138 100.307 21.6844 100.141C22.0564 99.9087 22.1578 95.73 21.7858 95.9621C21.6506 96.0284 21.5829 95.6968 21.5829 95.2325C21.5829 94.6024 21.6506 94.5029 21.8535 94.8013C22.0226 95.0667 22.1578 95.1993 22.1578 95.0998C22.1917 95.0003 22.2593 93.9722 22.2931 92.7783C22.3608 91.5843 22.4622 90.6226 22.496 90.6226C22.5637 90.6226 22.868 88.4337 22.9019 87.6377C22.9019 87.2729 23.2062 85.8136 23.5444 84.4207C23.9164 83.0278 24.2208 81.469 24.2546 80.9384C24.2884 80.4409 24.4237 79.844 24.559 79.6781C24.8972 79.247 25.6073 76.5606 25.5735 75.7647C25.5735 75.433 25.9793 74.4049 26.4866 73.4431C26.9601 72.4813 27.3997 71.4864 27.4674 71.2211C27.6026 70.3919 29.9699 65.1187 30.4096 64.5881C30.6463 64.3228 31.0521 63.56 31.2889 62.9298C32.0329 61.1058 35.2457 55.7662 36.9704 53.511C40.6228 48.7352 47.5218 41.5384 50.7346 39.0842C51.6815 38.3878 52.899 37.3928 53.4739 36.8622C54.5899 35.8672 59.3245 32.5176 60.542 31.8874C60.914 31.6884 62.6387 30.7598 64.3635 29.798C66.0882 28.8363 67.7115 28.0071 67.9144 27.974C68.4894 27.8413 69.7406 27.3107 71.8036 26.3489C72.7843 25.8846 73.5622 25.6524 73.5622 25.8514C73.5622 26.0172 73.7651 26.1167 74.0018 26.0172C74.2047 25.9509 74.3738 25.6856 74.3062 25.4866C74.2723 25.2876 74.5429 25.1218 74.9149 25.1218C75.3207 25.1218 76.0647 24.8896 76.572 24.6243C77.1131 24.359 77.6204 24.2595 77.7557 24.359C77.8571 24.4916 77.9586 24.3921 77.9586 24.16C77.9586 23.9278 78.0939 23.8283 78.2629 23.9278C78.432 24.0273 79.7848 23.762 81.3404 23.2977C85.4663 22.0706 88.0365 21.6726 88.6453 22.1701C89.0173 22.4686 89.1187 22.4354 89.1187 22.0374C89.1187 21.4405 90.1671 21.2083 93.1431 21.0093C94.1577 20.9762 95.037 20.7772 95.1046 20.6113C95.2061 20.2797 107.347 20.2797 110.763 20.6113ZM128.01 21.8053C128.01 21.9711 127.875 22.1369 127.672 22.1369C127.503 22.1369 127.334 21.9711 127.334 21.8053C127.334 21.6063 127.503 21.4736 127.672 21.4736C127.875 21.4736 128.01 21.6063 128.01 21.8053ZM72.277 22.8666C72.0403 23.0987 71.8712 23.1319 71.8712 22.9329C71.8712 22.4686 72.277 22.0706 72.5138 22.3028C72.5814 22.4023 72.48 22.6676 72.277 22.8666ZM72.2094 24.2595C72.2094 24.3258 71.9727 24.4916 71.6683 24.5911C71.3978 24.6906 71.2625 24.6575 71.3639 24.4585C71.5669 24.1268 72.2094 23.9942 72.2094 24.2595ZM65.7501 26.0172C65.7501 26.8464 65.7162 26.8464 65.4795 26.2826C65.3104 25.9177 65.2428 25.5198 65.3442 25.3539C65.6148 24.8896 65.7839 25.1218 65.7501 26.0172ZM145.528 27.4765C145.427 27.7418 145.291 27.576 145.156 27.1448C145.021 26.581 145.055 26.4484 145.325 26.7137C145.494 26.8795 145.596 27.2443 145.528 27.4765ZM153.712 32.4844C153.712 32.6834 153.509 32.6502 153.205 32.4181C152.934 32.1859 152.698 31.9538 152.698 31.8874C152.698 31.8211 152.934 31.8543 153.205 31.9538C153.476 32.0864 153.712 32.3186 153.712 32.4844ZM154.727 36.1989C154.727 36.2652 154.49 36.4974 154.22 36.7295C153.814 37.0612 153.712 37.0612 153.712 36.5969C153.712 36.2984 153.949 36.0662 154.22 36.0662C154.49 36.0662 154.727 36.1325 154.727 36.1989ZM100.448 36.7295C100.752 37.227 104.675 37.1607 104.675 36.6632C104.675 36.431 104.844 36.4642 105.115 36.7958C105.352 37.0943 106.332 37.3928 107.55 37.5586C110.864 37.8903 111.473 38.0229 114.145 38.6862C118.27 39.7144 122.329 40.9746 123.817 41.6711C124.561 42.0359 125.643 42.4339 126.184 42.5665C126.725 42.6992 127.401 42.9645 127.672 43.1967C127.943 43.3957 129.261 44.1253 130.547 44.7554C135.349 47.1101 146.272 55.4677 146.272 56.7943C146.272 57.0265 146.035 57.3913 145.765 57.6234C145.156 58.1209 145.089 58.6184 145.63 58.6184C145.833 58.6184 146.069 58.3199 146.171 57.9551C146.441 56.8938 147.118 57.1591 148.437 58.8505C149.113 59.746 150.973 62.0675 152.562 64.0906C154.423 66.4453 156.147 69.1317 157.466 71.6854L159.461 75.632L157.906 78.4842C157.06 80.0429 156.012 81.7675 155.606 82.3313C155.2 82.862 154.118 84.5202 153.171 85.9795L151.514 88.5995L151.142 84.9845C150.263 77.0249 148.437 72.0502 143.465 64.4223C140.76 60.2103 139.069 58.1541 135.281 54.4728C132.237 51.4879 125.203 46.679 120.333 44.2248C116.478 42.3012 110.052 40.2118 105.183 39.3827C101.801 38.7857 100.279 38.6862 95.037 38.7857C94.1239 38.7857 93.0417 38.7857 92.6697 38.7857C92.2977 38.7526 91.3508 38.7526 90.5391 38.7194C88.7467 38.6862 88.9496 38.2219 90.8773 37.8903C91.6889 37.7576 92.5682 37.5918 92.8388 37.5255C93.1093 37.4591 94.7326 37.3265 96.3897 37.227C98.0807 37.0943 99.501 36.8622 99.5349 36.6963C99.704 36.2984 100.177 36.3315 100.448 36.7295ZM49.1113 37.4591C49.0098 37.7245 48.9084 37.625 48.9084 37.2601C48.8746 36.8953 48.976 36.6963 49.0775 36.829C49.1789 36.9285 49.2127 37.227 49.1113 37.4591ZM119.826 39.2169C119.725 39.3164 119.522 39.1506 119.42 38.8189C119.217 38.3546 119.251 38.3214 119.589 38.6199C119.826 38.8521 119.927 39.1174 119.826 39.2169ZM123.445 39.7144C123.343 39.8802 123.073 40.046 122.904 40.046C122.701 40.046 122.667 39.8802 122.768 39.7144C122.87 39.5154 123.14 39.3827 123.309 39.3827C123.512 39.3827 123.546 39.5154 123.445 39.7144ZM79.9877 40.643C79.9877 41.0741 79.5819 41.3726 79.2437 41.1736C78.9055 40.9746 79.2099 40.3777 79.6833 40.3777C79.8524 40.3777 79.9877 40.5103 79.9877 40.643ZM81.8477 40.7093C81.7463 40.8751 81.4757 41.041 81.3066 41.041C81.1037 41.041 81.0699 40.8751 81.1713 40.7093C81.2728 40.5103 81.5434 40.3777 81.7124 40.3777C81.9154 40.3777 81.9492 40.5103 81.8477 40.7093ZM127.638 42.0359C127.638 42.3676 127.537 42.3012 127.334 41.8701C126.928 40.9746 126.928 40.444 127.334 41.041C127.503 41.3063 127.638 41.7706 127.638 42.0359ZM95.5781 42.3012C96.8632 42.3344 100.177 42.5997 101.97 42.8319C107.448 43.5615 109.038 43.8268 108.903 44.059C108.632 44.4569 109.647 44.6559 110.019 44.2911C110.289 44.0258 110.526 44.0258 110.864 44.3243C111.135 44.5233 112.487 45.0871 113.84 45.5514C116.951 46.6127 120.029 48.2378 125.744 51.8859C129.16 54.0748 131.02 55.534 133.658 58.1872C135.552 60.0776 137.378 62.2002 137.716 62.9298C138.054 63.6263 138.663 64.3891 139.069 64.6212C139.475 64.8202 139.982 65.4504 140.185 66.0142C140.354 66.578 140.895 67.5066 141.369 68.1036C141.842 68.7005 142.214 69.397 142.214 69.6291C142.214 69.8945 142.349 70.2261 142.518 70.3919C143.195 71.0552 145.359 76.4943 146.103 79.3465C147.354 84.1886 147.659 85.8136 147.929 88.9643C148.2 91.8165 148.166 92.0155 147.321 93.5411C146.374 95.2657 142.315 100.473 139.779 103.292C138.866 104.253 138.156 105.182 138.156 105.348C138.156 105.514 137.513 106.276 136.735 107.072C135.924 107.868 133.692 110.19 131.73 112.213C129.769 114.236 127.266 116.624 126.15 117.486C124.29 118.945 122.396 120.571 119.758 122.925C119.251 123.39 118.067 124.318 117.154 124.948C116.275 125.578 113.806 127.369 111.71 128.928C109.613 130.487 107.347 132.145 106.704 132.576C106.062 133.007 105.385 133.571 105.25 133.803C105.081 134.035 104.844 134.168 104.675 134.069C104.506 133.969 103.661 134.4 102.815 135.064C101.936 135.694 100.516 136.622 99.6701 137.12C98.7909 137.617 96.8632 138.811 95.3414 139.773C92.3315 141.697 91.858 141.796 88.4424 141.033C81.9154 139.541 72.4461 135.196 66.9675 131.15C64.0253 128.994 58.2085 123.224 55.6045 119.974C52.2564 115.728 50.3288 112.279 48.1644 106.542C47.116 103.855 45.8985 98.8475 45.6618 96.4264C45.5942 95.9621 45.4589 94.7018 45.3574 93.6074C44.8501 89.3291 44.884 86.0126 45.4589 85.3825C45.8647 84.885 45.8985 84.7192 45.5265 84.487C45.1545 84.2881 45.1545 83.8569 45.5265 81.9665C45.7632 80.7062 45.9323 79.4128 45.8647 79.048C45.7971 78.6832 45.9323 78.4842 46.2367 78.5837C46.4734 78.6832 46.7778 79.5455 46.9131 80.6399C47.0484 81.7012 47.3865 83.0278 47.6909 83.5916C47.9615 84.1222 48.1982 84.8519 48.1982 85.2167C48.1982 86.5433 51.58 91.6838 54.1841 94.3039C58.31 98.4827 62.4358 100.506 68.8952 101.534C72.1756 102.064 74.5767 101.766 79.6157 100.207C82.5579 99.2786 83.5048 98.8475 83.6401 98.35C83.7416 97.8857 83.8768 97.8194 84.0459 98.0847C84.2488 98.3832 84.7561 98.2505 85.9398 97.6204C88.0027 96.5259 88.7129 95.8958 91.5198 92.7783C96.6265 87.1402 98.757 79.8771 97.8101 71.4864C96.9308 63.8916 90.742 55.5009 83.3357 51.9191C78.06 49.3654 73.5622 48.6026 69.1657 49.4649C67.6439 49.7965 66.325 49.9623 66.2235 49.896C65.953 49.5975 69.4025 47.077 71.1949 46.2478C75.7942 44.1916 79.176 43.0972 84.0459 42.1686C84.6885 42.0691 87.0896 41.9696 89.3893 41.9696C93.1093 41.9696 93.549 41.9032 93.3799 41.4058C93.2446 41.041 93.3799 41.1073 93.7857 41.5716C94.1915 42.0359 94.8341 42.3012 95.5781 42.3012ZM105.927 42.1022C105.825 42.3344 105.757 42.1686 105.757 41.7043C105.757 41.2399 105.825 41.0741 105.927 41.2731C105.994 41.5053 105.994 41.9032 105.927 42.1022ZM103.492 41.7043C103.593 41.8701 103.458 42.0359 103.153 42.0359C102.849 42.0359 102.714 41.8701 102.815 41.7043C102.917 41.5053 103.086 41.3726 103.153 41.3726C103.221 41.3726 103.39 41.5053 103.492 41.7043ZM131.054 43.6941C131.054 43.86 130.919 44.0258 130.716 44.0258C130.547 44.0258 130.377 43.86 130.377 43.6941C130.377 43.4952 130.547 43.3625 130.716 43.3625C130.919 43.3625 131.054 43.4952 131.054 43.6941ZM134.097 45.0871C134.097 45.5514 133.489 45.3856 133.286 44.8218C132.914 43.8931 133.083 43.5283 133.59 44.1585C133.861 44.5233 134.097 44.9213 134.097 45.0871ZM121.72 46.878C121.821 47.1433 121.788 47.276 121.585 47.1765C121.382 47.077 121.246 46.8448 121.246 46.6458C121.246 46.1815 121.483 46.281 121.72 46.878ZM123.614 49.3654C123.614 49.5644 123.478 49.5975 123.276 49.498C123.106 49.3985 122.937 49.1332 122.937 48.9674C122.937 48.7684 123.106 48.7352 123.276 48.8347C123.478 48.9342 123.614 49.1995 123.614 49.3654ZM72.4123 53.6436C75.0502 53.5441 78.8717 54.5723 82.1859 56.2305C85.4663 57.8888 89.626 62.0012 91.114 65.1187C93.0079 69.0653 93.5828 71.5859 93.6166 76.5275C93.6504 80.1424 93.177 82.066 91.5537 85.5152C88.4424 92.0155 82.5241 95.929 74.4076 96.8576C71.0934 97.2556 70.3494 97.2224 67.813 96.7249C61.6918 95.531 56.5176 91.916 53.5077 86.7423C53.0004 85.88 52.1211 83.8237 51.5801 82.1987C50.7346 79.6781 50.5655 78.6169 50.5655 75.632C50.4979 69.8613 51.8168 65.782 55.131 61.6032C58.7158 57.0596 62.2329 54.9702 67.813 53.9421C69.0305 53.7431 70.1465 53.4115 70.3156 53.2788C70.5185 53.113 70.7552 53.1462 70.8567 53.3452C70.9919 53.511 71.6683 53.6436 72.4123 53.6436ZM173.665 60.1771C174.139 60.8404 174.511 61.4706 174.511 61.5701C174.545 61.6696 174.781 62.2002 175.052 62.764C176.912 66.2463 180.767 76.03 181.207 78.3847C181.274 78.7495 181.444 79.446 181.613 79.9766C181.782 80.6399 181.748 81.0047 181.41 81.2037C181.004 81.4359 181.038 81.5022 181.444 81.5022C182.086 81.5022 182.695 84.0227 182.999 88.2015L183.236 91.0869L181.748 92.4798C176.709 97.1561 175.356 98.549 175.356 98.947C175.356 99.2123 175.153 99.4113 174.917 99.4113C174.68 99.4113 174.24 99.8093 173.936 100.307C173.327 101.269 170.047 104.651 167.781 106.674L166.53 107.802L166.766 105.679C166.902 104.552 167.003 100.506 167.037 96.6917C167.071 91.4517 166.969 89.7603 166.665 89.6276C165.887 89.3623 166.191 88.898 167.24 88.6658C167.815 88.5663 168.254 88.3342 168.254 88.1352C168.254 87.9694 167.848 87.903 167.274 88.0025C166.394 88.2015 166.293 88.102 166.056 86.9081C165.921 86.2116 165.752 85.2167 165.684 84.686C165.549 83.6579 164.331 80.0098 163.351 77.5887C162.776 76.1958 162.776 76.1958 163.587 75.1014C164.061 74.5376 164.602 73.5426 164.805 72.9125C165.042 72.2823 165.65 71.0884 166.191 70.2593C167.443 68.2694 169.37 64.8202 171.027 61.5369C171.771 60.1108 172.448 58.95 172.583 58.95C172.718 58.95 173.192 59.5138 173.665 60.1771ZM27.5688 67.2744C27.5688 67.6393 27.4336 67.8382 27.2306 67.7387C27.0615 67.6393 26.8925 67.3076 26.8925 67.0423C26.8925 66.777 27.0615 66.578 27.2306 66.578C27.4336 66.578 27.5688 66.8765 27.5688 67.2744ZM24.9986 70.3919C24.8633 70.6573 24.7281 70.8894 24.6604 70.8894C24.5928 70.8894 24.5251 70.6573 24.5251 70.3919C24.5251 70.1266 24.6604 69.8945 24.8633 69.8945C25.0324 69.8945 25.1001 70.1266 24.9986 70.3919ZM23.0033 75.8642C22.9019 76.03 22.6651 76.1958 22.4622 76.1958C22.2931 76.1958 22.1578 76.03 22.1578 75.8642C22.1578 75.6652 22.3946 75.5325 22.6989 75.5325C22.9695 75.5325 23.1048 75.6652 23.0033 75.8642ZM162.302 83.8238C162.607 84.8187 162.877 86.3111 162.945 87.1402C162.979 87.9694 163.148 88.7985 163.283 89.0306C163.418 89.2628 163.621 93.1763 163.723 97.753C163.858 104.419 163.79 106.044 163.452 106.044C163.114 106.044 163.114 106.111 163.418 106.31C163.723 106.475 163.689 107.006 163.351 108.532C162.742 111.351 162.64 111.483 160.611 113.042C159.563 113.805 158.447 114.8 158.109 115.231C157.771 115.695 156.418 116.79 155.167 117.718C153.915 118.647 152.833 119.542 152.765 119.675C152.698 119.841 152.427 119.974 152.157 119.974C151.886 119.974 151.683 120.206 151.683 120.504C151.683 120.769 151.142 121.234 150.5 121.499C149.857 121.764 149.316 122.096 149.316 122.262C149.316 122.461 149.012 122.693 148.64 122.793C148.268 122.892 147.963 123.224 147.963 123.489C147.963 123.887 147.828 123.887 147.253 123.555C146.644 123.191 146.475 123.224 145.799 124.02C145.393 124.55 144.953 124.948 144.818 124.948C144.547 124.948 137.209 130.023 136.431 130.785C136.093 131.084 135.788 131.15 135.653 130.984C135.552 130.818 135.687 130.487 135.958 130.255C136.228 130.023 136.465 129.625 136.465 129.359C136.465 129.094 136.634 128.928 136.871 128.994C137.074 129.061 138.088 128.232 139.103 127.137C140.117 126.01 141.47 124.617 142.079 124.02C142.721 123.423 143.229 122.726 143.229 122.461C143.229 122.196 143.533 121.798 143.871 121.565C144.886 120.869 148.2 114.568 149.35 111.185C149.891 109.527 150.533 106.94 150.77 105.381C151.041 103.491 151.345 102.595 151.616 102.661C152.157 102.761 152.157 102.164 151.616 101.998C151.277 101.865 151.277 101.467 151.616 100.108C151.852 99.146 152.021 97.2556 152.021 95.8958V93.4084L156.485 86.7754C161.524 79.3133 161.051 79.5786 162.302 83.8238ZM22.1578 81.8338C22.1578 81.9997 22.0226 82.1655 21.8197 82.1655C21.6506 82.1655 21.4815 81.9997 21.4815 81.8338C21.4815 81.6349 21.6506 81.5022 21.8197 81.5022C22.0226 81.5022 22.1578 81.6349 22.1578 81.8338ZM22.0564 85.6478C22.0564 85.9131 21.9211 86.0458 21.752 85.9463C21.5829 85.8468 21.5491 85.6147 21.6506 85.4488C21.9549 85.0177 22.0564 85.084 22.0564 85.6478ZM92.5006 88.2678C92.5006 88.3673 92.3653 88.5332 92.1624 88.6327C91.9933 88.7322 91.8242 88.6658 91.8242 88.5C91.8242 88.301 91.9933 88.1352 92.1624 88.1352C92.3653 88.1352 92.5006 88.2015 92.5006 88.2678ZM20.4669 93.1099C20.4669 93.2758 20.2978 93.4416 20.0949 93.4416C19.9258 93.4416 19.8582 93.2758 19.9596 93.1099C20.0611 92.9109 20.2302 92.7783 20.3316 92.7783C20.3993 92.7783 20.4669 92.9109 20.4669 93.1099ZM183.642 94.1049C183.54 94.2707 183.54 94.4365 183.709 94.4365C183.845 94.4365 183.946 95.8958 183.946 97.6867C183.879 102.496 183.845 102.794 183.473 102.562C183.033 102.297 183.033 102.827 183.439 103.225C183.743 103.557 182.965 110.422 182.12 114.999C181.477 118.547 180.091 123.655 179.448 124.915C179.11 125.578 178.434 127.237 177.96 128.596C176.81 131.88 173.733 137.982 171.704 140.967C170.825 142.294 169.878 143.753 169.641 144.25C169.37 144.781 169.032 145.179 168.863 145.179C168.728 145.179 168.593 145.345 168.593 145.544C168.593 147.069 155.539 159.539 149.654 163.652C143.364 168.063 130.31 173.767 123.783 175.027C119.116 175.89 113.4 177.316 112.893 177.714C112.42 178.112 112.386 178.112 112.589 177.714C112.826 177.349 112.386 177.316 110.052 177.515C106.096 177.88 96.6941 177.78 94.9017 177.382C94.0562 177.216 93.2784 177.117 93.1431 177.183C92.805 177.415 88.0027 176.52 87.1911 176.089C86.7852 175.856 86.1089 175.691 85.6692 175.657C85.2296 175.657 85.8045 175.326 87.0896 174.862C89.0849 174.132 90.1333 173.369 90.1333 172.606C90.1333 172.208 89.0173 172.606 86.3456 173.9C84.6547 174.729 83.6063 175.027 82.355 175.027C80.6302 175.027 80.3259 174.828 81.0699 174.099C81.3743 173.8 81.3743 173.701 81.0699 173.701C80.867 173.701 80.5626 173.966 80.3935 174.265C80.123 174.729 79.8862 174.762 79.1084 174.464C78.0938 174.066 76.8426 173.668 76.7073 173.668C76.6735 173.634 75.5913 173.27 74.34 172.805C73.0887 172.341 71.7698 171.91 71.4316 171.81C71.0258 171.678 70.8567 171.412 70.9581 171.014C71.0596 170.65 70.9919 170.384 70.8228 170.384C70.6538 170.384 70.8228 170.086 71.1949 169.721C71.5669 169.356 72.108 169.058 72.3785 169.058C72.6491 169.058 72.8858 168.892 72.8858 168.726C72.8858 168.527 72.7505 168.394 72.5476 168.394C72.3785 168.394 72.3109 168.162 72.4461 167.864C72.6152 167.433 72.5138 167.366 71.8374 167.565C69.7745 168.195 69.4701 168.394 69.6392 168.991C69.7407 169.29 69.673 169.787 69.5039 170.053C69.2334 170.451 69.1657 170.384 69.1657 169.787C69.1657 169.124 69.0305 169.058 68.4217 169.257C67.9821 169.356 67.7454 169.356 67.8806 169.223C68.0159 169.058 67.9483 168.726 67.7115 168.461C67.3733 168.03 67.4072 167.963 68.0497 168.129C68.4894 168.262 68.8614 168.162 68.9628 167.864C69.0643 167.632 69.4363 167.499 69.8421 167.565C70.2817 167.632 70.5185 167.532 70.5185 167.2C70.5185 166.935 70.6199 166.769 70.789 166.769C71.4316 166.869 71.533 166.67 71.1949 166.04C70.8567 165.41 70.7552 165.41 70.2479 165.841C69.9436 166.139 69.5377 166.371 69.3348 166.371C68.8276 166.438 67.7454 166.736 66.9675 167.068C65.3104 167.764 63.4842 167.963 62.5373 167.565C61.5904 167.2 61.5565 167.167 62.2667 166.802C62.8755 166.504 66.5955 165.012 67.1366 164.912C68.0497 164.68 69.1657 164.017 69.1657 163.718C69.1657 163.486 69.2672 163.386 69.3687 163.486C69.4701 163.619 70.1127 163.486 70.7552 163.221C71.3978 162.922 72.0065 162.789 72.108 162.889C72.2094 162.988 72.6152 162.69 73.0549 162.259C73.4607 161.795 73.9003 161.529 74.0018 161.662C74.1371 161.761 74.2385 161.695 74.2385 161.463C74.2385 161.231 74.4414 161.098 74.6782 161.198C74.8811 161.264 75.3545 161.032 75.6589 160.7C75.9633 160.335 76.4029 160.136 76.572 160.269C76.7749 160.368 76.944 160.335 76.944 160.136C76.944 159.606 78.804 158.777 79.6833 158.942C80.123 159.042 80.5964 159.34 80.7655 159.639C81.0361 160.103 81.1037 160.103 81.5433 159.539C81.7801 159.208 82.0168 159.042 82.0168 159.175C82.0168 159.307 81.6448 159.805 81.1713 160.302C80.6979 160.8 80.3259 160.999 80.3259 160.766C80.3259 160.468 80.123 160.534 79.6833 160.965C78.9393 161.728 79.379 162.723 80.1906 162.06C80.5288 161.795 80.6641 161.795 80.6641 162.06C80.6641 162.259 80.8332 162.425 81.0023 162.425C81.2052 162.425 81.3404 162.226 81.3404 161.96C81.3404 161.695 81.6448 161.562 82.1521 161.596C82.7946 161.662 83.0314 161.496 83.2005 160.833C83.3696 160.136 83.471 160.07 83.7416 160.468C84.0121 160.866 84.0797 160.866 84.3841 160.435C84.6208 160.07 84.7899 160.037 85.0943 160.335C85.3649 160.601 85.7369 160.634 86.278 160.435C86.7514 160.236 87.0896 160.236 87.0896 160.435C87.0896 160.833 85.3987 162.093 84.8914 162.093C84.6547 162.093 84.2827 162.325 84.0459 162.59C83.8092 162.889 83.4034 163.055 83.1328 162.955C82.8961 162.856 82.6932 162.922 82.6932 163.121C82.6932 163.32 82.5579 163.386 82.4226 163.287C82.2535 163.187 81.8139 163.386 81.4757 163.718C81.1037 164.017 80.6302 164.249 80.3935 164.149C80.1906 164.083 79.9877 164.315 79.9877 164.647C79.9877 165.144 79.9201 165.177 79.6495 164.746C79.3451 164.315 79.2775 164.315 78.9731 164.746C78.6349 165.277 78.6011 165.244 78.4659 164.249C78.3982 163.884 78.2629 163.287 78.0938 162.955C77.8909 162.425 77.9586 162.358 78.3982 162.524C80.1568 163.221 80.1906 163.221 79.4466 162.392C79.0408 161.96 78.6349 161.363 78.5335 161.098C78.3982 160.7 78.3306 160.733 78.3306 161.198C78.2968 161.662 78.1277 161.761 77.6204 161.596C77.1469 161.43 76.944 161.529 76.944 161.894C76.944 162.392 76.572 162.557 75.6927 162.458C75.0164 162.358 75.1854 162.889 75.9633 163.353C76.5044 163.685 76.7749 163.685 77.1131 163.42C77.4851 163.121 77.6542 163.221 77.8233 163.917C77.9586 164.514 77.8909 164.912 77.5866 165.144C77.2146 165.376 77.2146 165.509 77.5527 165.642C77.7557 165.708 77.8909 165.907 77.8233 166.04C77.7218 166.172 77.7895 166.471 77.9924 166.736C78.2291 167.167 78.2968 167.134 78.2968 166.637C78.2968 165.973 78.8379 165.874 79.1084 166.471C79.2099 166.703 79.2099 166.537 79.1084 166.106C78.9393 165.476 79.007 165.343 79.4128 165.509C79.6833 165.609 80.2582 165.443 80.6641 165.177C81.239 164.779 81.4757 164.746 81.6786 165.078C81.8815 165.376 82.0168 165.277 82.1859 164.779C82.3212 164.381 82.5917 164.116 82.7608 164.149C82.9637 164.216 83.6739 163.784 84.3503 163.221C85.2296 162.392 85.6354 162.226 85.9736 162.491C86.3118 162.756 86.4132 162.723 86.4132 162.425C86.4132 161.894 87.394 160.766 87.8674 160.766C88.0703 160.766 87.9013 161.032 87.4954 161.363C87.022 161.795 86.8867 162.093 87.1234 162.458C87.3263 162.789 87.4278 162.789 87.4278 162.491C87.4278 161.927 89.7613 160.866 90.0656 161.264C90.2009 161.463 90.8435 161.629 91.486 161.662C92.1286 161.695 94.2592 161.795 96.2206 161.927C103.187 162.325 107.381 162.226 107.381 161.662C107.381 161.363 107.448 161.363 107.651 161.662C108.192 162.491 110.019 162.292 110.424 161.33C110.661 160.766 110.729 160.733 110.729 161.164C110.763 161.596 111.033 161.761 111.71 161.761C113.13 161.728 115.227 161.198 115.497 160.766C115.666 160.468 115.802 160.468 115.971 160.733C116.275 161.198 117.763 161.198 118.034 160.766C118.135 160.567 118.575 160.435 118.981 160.435C120.401 160.435 122.295 159.738 122.024 159.34C121.855 159.042 121.923 159.042 122.295 159.34C122.734 159.672 123.343 159.506 125.677 158.379C127.232 157.649 128.687 157.019 128.889 156.986C129.126 156.952 129.498 156.787 129.735 156.588C130.005 156.422 131.392 155.692 132.846 154.996C134.267 154.299 135.45 153.57 135.45 153.437C135.45 153.271 135.653 153.138 135.856 153.138C136.093 153.138 137.243 152.508 138.426 151.712C139.914 150.717 140.489 150.154 140.388 149.722C140.219 149.092 140.726 148.927 140.929 149.557C140.997 149.756 141.876 149.225 142.924 148.296C143.905 147.401 145.325 146.24 146.035 145.71C146.712 145.179 147.287 144.648 147.287 144.482C147.287 144.317 147.76 143.753 148.335 143.255C149.654 142.128 150.533 141.199 152.529 138.878C153.374 137.883 154.422 136.656 154.862 136.191C155.302 135.727 156.012 134.699 156.418 133.87C156.824 133.074 157.365 132.178 157.601 131.913C159.428 129.824 165.211 116.657 165.211 114.568C165.211 113.573 166.631 110.356 166.969 110.555C167.104 110.654 167.24 110.555 167.24 110.323C167.24 110.09 168.018 109.195 168.931 108.366C169.878 107.537 170.622 106.907 170.622 106.973C170.622 107.072 170.994 106.741 171.467 106.243C171.907 105.779 172.448 105.381 172.651 105.381C172.82 105.381 172.989 105.215 172.989 105.049C172.989 104.85 172.989 104.651 172.989 104.552C172.989 104.287 174.308 103.059 174.612 103.059C174.748 103.059 175.221 102.529 175.694 101.899C176.168 101.269 176.81 100.738 177.149 100.738C177.487 100.738 177.656 100.572 177.554 100.373C177.419 100.207 177.825 99.5439 178.434 98.9138C179.212 98.151 179.651 97.9188 179.82 98.1842C179.989 98.4495 180.091 98.3168 180.091 97.8525C180.091 97.4877 180.564 96.7581 181.105 96.3269C181.68 95.8626 182.12 95.3652 182.12 95.2325C182.12 94.9008 183.236 93.8064 183.574 93.8064C183.743 93.7732 183.743 93.9059 183.642 94.1049ZM19.9935 95.0003C19.6553 95.332 19.3509 94.8345 19.6553 94.4034C19.8582 94.0386 19.9258 94.0386 20.0611 94.4034C20.1287 94.6355 20.0949 94.9008 19.9935 95.0003ZM180.091 95.4315C179.888 95.7963 179.651 96.0948 179.55 96.0948C179.482 96.0948 179.55 95.7963 179.753 95.4315C179.956 95.0667 180.192 94.7682 180.294 94.7682C180.361 94.7682 180.294 95.0667 180.091 95.4315ZM18.776 96.4264C18.776 96.5923 18.6407 96.7581 18.4378 96.7581C18.2687 96.7581 18.0996 96.5923 18.0996 96.4264C18.0996 96.2274 18.2687 96.0948 18.4378 96.0948C18.6407 96.0948 18.776 96.2274 18.776 96.4264ZM62.1991 97.5872C62.3006 97.8525 62.2329 98.0847 62.0638 98.0847C61.8609 98.0847 61.7256 97.8525 61.7256 97.5872C61.7256 97.3219 61.7933 97.0897 61.8609 97.0897C61.9286 97.0897 62.0638 97.3219 62.1991 97.5872ZM147.287 104.22C146.137 109.46 146.171 109.361 146.61 109.361C146.847 109.361 146.746 109.626 146.374 109.925C146.002 110.256 145.427 111.251 145.089 112.18C144.378 114.137 142.721 117.221 141.233 119.377C139.88 121.366 134.672 126.839 131.663 129.459C130.445 130.52 129.397 131.648 129.397 131.979C129.363 132.344 129.16 132.477 128.72 132.344C128.348 132.245 127.773 132.477 127.368 132.875C126.996 133.24 126.184 133.77 125.575 134.102C124.966 134.4 123.817 135.163 123.039 135.76C122.295 136.39 121.28 137.02 120.841 137.186C120.435 137.352 119.217 138.015 118.203 138.679C117.188 139.342 115.835 140.038 115.159 140.237C114.517 140.436 113.231 140.934 112.284 141.365C110.729 142.061 110.019 142.26 107.787 142.692C107.347 142.758 106.704 142.924 106.366 143.023C105.588 143.255 96.9646 143.355 96.7279 143.123C96.5588 142.99 103.525 138.645 105.69 137.551C106.4 137.186 112.555 132.842 113.739 131.88C113.975 131.714 114.043 131.382 113.942 131.183C113.806 130.951 113.874 130.918 114.077 131.051C114.483 131.283 119.048 128.165 119.353 127.402C119.454 127.137 119.826 126.938 120.164 126.938C120.536 126.938 121.044 126.706 121.28 126.408C121.517 126.109 123.58 124.285 125.812 122.361C130.073 118.713 139.847 109.129 139.847 108.631C139.847 108.465 140.726 107.305 141.808 106.044C146.509 100.473 147.151 99.7098 147.456 99.0133C148.132 97.5209 148.031 100.771 147.287 104.22ZM36.0573 101.832C35.7191 102.131 35.6853 102.098 35.8882 101.633C35.9897 101.302 36.1926 101.136 36.294 101.235C36.3955 101.335 36.294 101.6 36.0573 101.832ZM19.9596 103.723C20.0611 103.889 19.9935 104.054 19.8244 104.054C19.6214 104.054 19.4524 103.889 19.4524 103.723C19.4524 103.524 19.52 103.391 19.5876 103.391C19.6891 103.391 19.8582 103.524 19.9596 103.723ZM19.1142 104.187C19.1142 104.253 18.8774 104.386 18.6069 104.519C18.3363 104.618 18.0996 104.552 18.0996 104.386C18.0996 104.187 18.3363 104.054 18.6069 104.054C18.8774 104.054 19.1142 104.121 19.1142 104.187ZM36.9366 106.21C36.9366 106.475 36.8013 106.608 36.6322 106.509C36.4631 106.409 36.4293 106.177 36.5308 106.011C36.8351 105.58 36.9366 105.646 36.9366 106.21ZM148.64 105.845C148.64 105.945 148.504 106.111 148.301 106.21C148.132 106.31 147.963 106.243 147.963 106.077C147.963 105.878 148.132 105.713 148.301 105.713C148.504 105.713 148.64 105.779 148.64 105.845ZM21.1433 106.31C21.1433 106.741 20.7375 107.039 20.3993 106.84C20.0611 106.641 20.3655 106.044 20.8389 106.044C21.008 106.044 21.1433 106.177 21.1433 106.31ZM21.7182 111.085C21.6167 111.351 21.5153 111.251 21.5153 110.886C21.4815 110.522 21.5829 110.323 21.6844 110.455C21.7858 110.555 21.8197 110.853 21.7182 111.085ZM38.2893 113.075C38.1879 113.341 38.0864 113.241 38.0864 112.876C38.0526 112.511 38.1541 112.312 38.2555 112.445C38.357 112.545 38.3908 112.843 38.2893 113.075ZM20.3655 114.07C20.264 114.336 20.1625 114.236 20.1625 113.871C20.1287 113.506 20.2302 113.307 20.3316 113.44C20.4331 113.54 20.4669 113.838 20.3655 114.07ZM161.829 115.894C161.355 118.183 159.766 122.395 158.041 125.777C156.553 128.663 155.369 130.553 151.683 135.86C150.973 136.854 147.456 140.635 145.021 142.957C144.683 143.289 143.939 144.018 143.364 144.549C142.823 145.113 142.045 145.743 141.639 145.942C141.267 146.174 139.745 147.268 138.291 148.396C136.803 149.557 135.484 150.585 135.281 150.751C134.537 151.314 123.681 156.455 123.208 156.455C122.937 156.455 122.599 156.588 122.43 156.72C122.227 156.886 121.213 157.185 120.164 157.417C119.082 157.649 118.135 157.981 118.034 158.146C117.898 158.312 117.391 158.445 116.816 158.445C116.275 158.445 115.835 158.544 115.835 158.677C115.835 158.843 114.889 158.976 113.739 159.042C112.454 159.108 111.405 159.34 111.067 159.639C110.627 160.037 110.323 160.07 109.85 159.805C109.41 159.606 108.328 159.606 106.671 159.805C103.39 160.203 99.6701 160.269 98.4527 159.937C97.7763 159.771 97.4043 159.805 97.2014 160.136C96.9646 160.501 96.8294 160.501 96.6265 160.169C96.4574 159.937 95.4428 159.672 94.3268 159.572C91.4522 159.34 91.3508 159.274 92.0609 158.312C92.4329 157.848 92.805 157.616 93.0079 157.782C93.549 158.213 94.3268 157.616 93.9886 157.085C93.7857 156.687 93.8195 156.687 94.293 157.085C94.8002 157.483 94.8679 157.45 94.8679 156.986C94.8679 156.322 93.8871 156.289 93.6166 156.986C93.5151 157.251 93.2108 157.417 92.9402 157.317C92.6697 157.218 92.23 157.35 91.9257 157.616C91.6213 157.914 91.1478 158.047 90.7758 157.947C90.4377 157.815 90.1333 157.881 90.1333 158.047C90.1333 158.379 88.5776 158.777 88.2733 158.511C88.2056 158.412 87.3263 158.345 86.3794 158.312C85.1958 158.279 84.5532 158.113 84.4518 157.815C84.3503 157.483 84.4518 157.417 84.8238 157.549C85.1281 157.649 86.4809 157.185 87.9689 156.455C89.3893 155.725 90.742 155.128 90.9787 155.128C91.5537 155.128 99.7378 151.082 99.8731 150.751C99.9407 150.618 100.211 150.485 100.516 150.485C100.786 150.485 101.395 150.187 101.902 149.822C102.443 149.391 102.849 149.258 102.984 149.49C103.289 149.988 104.405 149.49 104.202 148.96C104.1 148.661 104.269 148.495 104.641 148.495C104.98 148.495 105.453 148.263 105.69 147.998C105.927 147.733 106.265 147.6 106.434 147.699C106.603 147.832 107.212 147.6 107.753 147.202C108.26 146.837 109.072 146.506 109.545 146.506C110.019 146.506 110.492 146.34 110.594 146.174C110.898 145.71 113.062 144.847 113.975 144.847C114.381 144.847 114.922 144.615 115.159 144.383C115.362 144.118 116.106 143.72 116.782 143.487C117.459 143.288 118.71 142.758 119.555 142.36C120.401 141.929 123.343 140.503 126.15 139.176C128.923 137.816 131.967 136.258 132.846 135.661C133.759 135.064 134.706 134.566 134.943 134.566C135.18 134.566 135.619 134.201 135.924 133.737C136.228 133.273 136.634 132.974 136.803 133.074C137.006 133.173 137.682 132.742 138.392 132.079C139.069 131.415 139.847 130.984 140.083 131.051C140.32 131.15 140.523 131.117 140.523 130.951C140.523 130.586 143.161 128.895 143.871 128.762C144.175 128.729 144.378 128.464 144.378 128.165C144.345 127.867 144.514 127.734 144.784 127.834C145.055 127.933 145.359 127.767 145.461 127.436C145.663 126.938 146.949 126.209 147.794 126.142C147.963 126.109 148.268 125.777 148.504 125.379C148.707 124.948 148.978 124.716 149.113 124.849C149.248 125.015 149.519 124.849 149.688 124.55C149.857 124.219 150.195 124.053 150.432 124.152C150.669 124.219 151.244 123.92 151.649 123.489C152.089 123.025 152.596 122.726 152.732 122.826C152.901 122.925 153.036 122.826 153.036 122.627C153.036 122.428 153.205 122.361 153.374 122.461C153.577 122.56 153.712 122.328 153.712 121.963C153.712 121.532 153.983 121.167 154.389 121.068C154.761 120.968 155.065 120.736 155.065 120.571C155.065 120.372 155.369 120.305 155.708 120.405C156.249 120.537 156.418 120.372 156.485 119.708C156.587 118.945 157.331 118.282 159.056 117.453C159.259 117.354 159.461 117.088 159.461 116.889C159.461 116.524 161.457 114.667 161.863 114.667C161.998 114.667 161.964 115.231 161.829 115.894ZM39.4053 117.652C39.4053 117.818 39.2701 117.984 39.0672 117.984C38.8981 117.984 38.729 117.818 38.729 117.652C38.729 117.453 38.8981 117.32 39.0672 117.32C39.2701 117.32 39.4053 117.453 39.4053 117.652ZM61.286 128.331C61.1845 128.596 61.0831 128.497 61.0831 128.132C61.0493 127.767 61.1507 127.568 61.2522 127.701C61.3536 127.8 61.3875 128.099 61.286 128.331ZM134.842 131.648C134.605 131.88 134.436 131.913 134.436 131.714C134.436 131.25 134.842 130.852 135.078 131.084C135.146 131.183 135.044 131.449 134.842 131.648ZM30.2743 137.551C30.2743 137.717 30.2067 137.883 30.139 137.883C30.0376 137.883 29.8685 137.717 29.767 137.551C29.6656 137.352 29.7332 137.219 29.9023 137.219C30.1052 137.219 30.2743 137.352 30.2743 137.551ZM7.95402 140.071C7.95402 140.337 7.78493 140.469 7.61583 140.37C7.41292 140.237 7.34528 140.005 7.44674 139.839C7.75111 139.375 7.95402 139.475 7.95402 140.071ZM95.3752 146.472C96.6941 146.638 98.4527 146.738 99.3658 146.638C100.448 146.506 100.955 146.572 100.955 146.87C100.955 147.136 101.091 147.136 101.463 146.837C101.868 146.505 101.97 146.505 101.97 146.903C101.97 147.169 101.395 147.567 100.719 147.799C100.008 148.031 98.1483 148.96 96.5588 149.822C94.9693 150.717 93.0079 151.679 92.1624 152.011C91.3169 152.309 89.0511 153.304 87.1234 154.2C85.1619 155.128 83.3696 155.792 82.9976 155.692C82.6594 155.593 82.355 155.626 82.355 155.792C82.355 156.057 81.3404 156.19 79.5142 156.156C78.9731 156.156 78.2629 155.891 77.9248 155.593C77.5866 155.294 76.9102 155.029 76.4367 155.029C74.712 155.029 75.2531 154.664 81.6786 151.414C83.8092 150.353 86.9882 148.562 88.7467 147.5C91.0126 146.108 92.0948 145.643 92.4668 145.842C92.7711 145.975 94.0901 146.273 95.3752 146.472ZM35.3471 148.164C35.3471 148.33 35.178 148.495 34.9751 148.495C34.806 148.495 34.7384 148.33 34.8398 148.164C34.9413 147.965 35.1104 147.832 35.2118 147.832C35.2795 147.832 35.3471 147.965 35.3471 148.164ZM73.5622 156.621C74.2047 157.085 74.9825 157.45 75.2869 157.45C76.4367 157.45 76.2338 158.047 74.8134 158.976C74.0356 159.506 73.2916 160.07 73.1902 160.203C73.0887 160.368 72.8858 160.468 72.7505 160.468C72.6491 160.435 71.4654 160.965 70.1803 161.596C68.8952 162.226 67.7115 162.789 67.5763 162.789C67.4072 162.789 67.1028 162.955 66.8999 163.154C66.6632 163.353 66.4602 163.386 66.4602 163.254C66.4602 163.121 66.2573 163.154 66.0544 163.353C65.4119 163.851 62.1653 165.045 59.9333 165.575C58.2761 165.94 57.938 165.94 57.8027 165.575C57.7012 165.343 56.991 164.713 56.2132 164.216L54.7928 163.32L56.3147 162.657C57.1601 162.325 58.9863 161.596 60.4067 161.098C62.9431 160.169 66.2573 158.743 70.3494 156.787C71.4654 156.256 72.3785 155.825 72.4123 155.825C72.4123 155.792 72.9196 156.156 73.5622 156.621ZM83.5048 158.279C83.3696 158.544 83.1328 158.677 82.9637 158.578C82.7608 158.445 82.7946 158.246 83.0652 158.08C83.7077 157.682 83.7077 157.715 83.5048 158.279ZM82.6932 159.937C82.6932 160.203 82.5579 160.435 82.355 160.435C82.1859 160.435 82.1183 160.203 82.2197 159.937C82.355 159.672 82.4903 159.44 82.5579 159.44C82.6255 159.44 82.6932 159.672 82.6932 159.937ZM71.2963 168.759C71.0934 168.958 70.6538 169.058 70.3156 168.958C69.7406 168.859 69.7745 168.792 70.5185 168.494C71.4654 168.096 71.8374 168.229 71.2963 168.759ZM66.4602 168.726C66.4602 169.157 65.7839 169.157 65.1075 168.726C64.7017 168.461 64.8031 168.394 65.5471 168.394C66.0544 168.394 66.4602 168.527 66.4602 168.726ZM60.8802 171.048C60.7787 171.213 60.4743 171.379 60.2714 171.379C60.0347 171.379 60.0685 171.247 60.3729 171.048C61.0154 170.65 61.1507 170.65 60.8802 171.048ZM67.1366 173.17C67.1366 173.27 67.0013 173.435 66.7984 173.535C66.6293 173.634 66.4602 173.568 66.4602 173.402C66.4602 173.203 66.6293 173.037 66.7984 173.037C67.0013 173.037 67.1366 173.104 67.1366 173.17ZM75.2531 177.017C75.2531 177.183 75.1178 177.349 74.9149 177.349C74.7458 177.349 74.5767 177.183 74.5767 177.017C74.5767 176.818 74.7458 176.686 74.9149 176.686C75.1178 176.686 75.2531 176.818 75.2531 177.017ZM83.8092 177.183C83.7077 177.482 83.5386 177.647 83.471 177.548C83.3696 177.448 83.4034 177.249 83.5386 177.05C83.843 176.52 84.0459 176.619 83.8092 177.183ZM88.1042 179.272C88.1042 179.67 88.0027 179.67 87.5969 179.339C87.3263 179.107 87.0896 178.908 87.0896 178.841C87.0896 178.808 87.3263 178.775 87.5969 178.775C87.8674 178.775 88.1042 179.007 88.1042 179.272Z" fill="black"/>
<path d="M95.037 22.1701C94.6988 22.6676 95.1384 22.9992 95.5781 22.5681C95.8148 22.336 95.8148 22.137 95.6119 22.0043C95.409 21.9048 95.1384 21.9711 95.037 22.1701Z" fill="black"/>
<path d="M85.7369 23.961C85.7369 24.2263 85.906 24.4585 86.0751 24.4585C86.278 24.4585 86.4132 24.2263 86.4132 23.961C86.4132 23.6957 86.278 23.4636 86.0751 23.4636C85.906 23.4636 85.7369 23.6957 85.7369 23.961Z" fill="black"/>
<path d="M139.001 29.7649C138.9 29.9307 139.035 30.0965 139.306 30.0965C139.61 30.0965 139.847 29.9307 139.847 29.7649C139.847 29.5659 139.711 29.4332 139.542 29.4332C139.339 29.4332 139.103 29.5659 139.001 29.7649Z" fill="black"/>
<path d="M66.1221 30.4282C66.1221 30.594 66.2911 30.7598 66.4941 30.7598C66.6632 30.7598 66.7308 30.594 66.6293 30.4282C66.5279 30.2292 66.3588 30.0965 66.2573 30.0965C66.1897 30.0965 66.1221 30.2292 66.1221 30.4282Z" fill="black"/>
<path d="M134.875 31.6553C134.334 31.8543 134.3 32.7497 134.774 32.7497C135.146 32.7497 135.653 31.8211 135.416 31.6221C135.349 31.5558 135.078 31.589 134.875 31.6553Z" fill="black"/>
<path d="M118.27 32.7829C118.338 33.0151 118.609 33.2804 118.845 33.3467C119.116 33.4462 119.251 33.3135 119.15 33.0482C119.082 32.8161 118.811 32.5507 118.575 32.4844C118.304 32.3849 118.169 32.5176 118.27 32.7829Z" fill="black"/>
<path d="M129.363 32.8824C129.363 33.214 129.667 33.413 130.073 33.413C130.885 33.413 130.783 32.6502 129.938 32.4844C129.6 32.4181 129.363 32.5839 129.363 32.8824Z" fill="black"/>
<path d="M138.156 32.7497C138.156 32.9156 138.325 33.0814 138.494 33.0814C138.697 33.0814 138.832 32.9156 138.832 32.7497C138.832 32.5508 138.697 32.4181 138.494 32.4181C138.325 32.4181 138.156 32.5508 138.156 32.7497Z" fill="black"/>
<path d="M133.421 35.4029C133.421 35.5688 133.59 35.7346 133.793 35.7346C133.962 35.7346 134.03 35.5688 133.928 35.4029C133.827 35.2039 133.658 35.0713 133.556 35.0713C133.489 35.0713 133.421 35.2039 133.421 35.4029Z" fill="black"/>
<path d="M59.426 40.1787C59.4598 40.5103 59.6965 40.7425 59.8656 40.7425C60.3729 40.7093 60.2714 39.9465 59.7642 39.7807C59.4598 39.6812 59.3245 39.847 59.426 40.1787Z" fill="black"/>
<path d="M144.649 46.4137C144.852 47.0107 145.596 47.1102 145.596 46.5464C145.596 46.2479 145.359 46.0157 145.055 46.0157C144.75 46.0157 144.581 46.1815 144.649 46.4137Z" fill="black"/>
<path d="M151.751 54.3733C151.954 54.9703 152.698 55.0698 152.698 54.506C152.698 54.2075 152.461 53.9753 152.157 53.9753C151.852 53.9753 151.683 54.1411 151.751 54.3733Z" fill="black"/>
<path d="M26.2161 74.5376C26.2161 74.7366 26.4528 74.8692 26.7234 74.8692C26.9939 74.8692 27.2306 74.8029 27.2306 74.7366C27.2306 74.6702 26.9939 74.5376 26.7234 74.4049C26.4528 74.3054 26.2161 74.3717 26.2161 74.5376Z" fill="black"/>
<path d="M27.5688 78.3847C27.5688 78.65 27.7379 78.7827 27.907 78.6832C28.1099 78.5505 28.1776 78.3184 28.0761 78.1526C27.7717 77.6882 27.5688 77.7877 27.5688 78.3847Z" fill="black"/>
<path d="M39.4392 78.3847C39.4392 78.7495 39.5406 78.849 39.6421 78.5837C39.7435 78.3515 39.7097 78.0531 39.6083 77.9536C39.5068 77.8209 39.4053 78.0199 39.4392 78.3847Z" fill="black"/>
<path d="M29.2598 83.8238C29.2598 83.9896 29.4965 84.1554 29.767 84.1554C30.0376 84.1554 30.2743 83.9896 30.2743 83.8238C30.2743 83.6248 30.0376 83.4921 29.767 83.4921C29.4965 83.4921 29.2598 83.6248 29.2598 83.8238Z" fill="black"/>
<path d="M28.5157 101.965C28.7525 102.064 29.0568 102.031 29.1583 101.932C29.2936 101.832 29.0907 101.733 28.7187 101.766C28.3466 101.766 28.2452 101.865 28.5157 101.965Z" fill="black"/>
<path d="M26.3852 109.361C26.2837 109.527 26.419 109.692 26.6895 109.692C26.9939 109.692 27.2306 109.527 27.2306 109.361C27.2306 109.162 27.0954 109.029 26.9263 109.029C26.7234 109.029 26.4866 109.162 26.3852 109.361Z" fill="black"/>
<path d="M25.7426 113.142C26.0808 113.407 26.4528 113.54 26.5543 113.473C26.7234 113.274 25.8441 112.677 25.4044 112.677C25.2015 112.677 25.3706 112.876 25.7426 113.142Z" fill="black"/>
<path d="M35.0089 114.667C35.0089 114.833 35.178 114.999 35.3471 114.999C35.55 114.999 35.6853 114.833 35.6853 114.667C35.6853 114.468 35.55 114.336 35.3471 114.336C35.178 114.336 35.0089 114.468 35.0089 114.667Z" fill="black"/>
<path d="M32.1343 122.627C32.2358 122.793 32.4049 122.958 32.5063 122.958C32.574 122.958 32.6416 122.793 32.6416 122.627C32.6416 122.428 32.4725 122.295 32.2696 122.295C32.1005 122.295 32.0329 122.428 32.1343 122.627Z" fill="black"/>
<path d="M33.9944 122.826C33.9944 123.091 34.1634 123.224 34.3325 123.124C34.5355 122.992 34.6031 122.759 34.5016 122.594C34.1973 122.129 33.9944 122.229 33.9944 122.826Z" fill="black"/>
<path d="M26.8924 123.423C26.8924 123.489 27.1292 123.622 27.3997 123.754C27.6703 123.854 27.907 123.788 27.907 123.622C27.907 123.423 27.6703 123.29 27.3997 123.29C27.1292 123.29 26.8924 123.356 26.8924 123.423Z" fill="black"/>
<path d="M30.9507 125.446C30.9507 125.976 31.4918 126.109 31.7623 125.645C31.8638 125.479 31.7285 125.28 31.458 125.147C31.1536 125.048 30.9507 125.147 30.9507 125.446Z" fill="black"/>
<path d="M33.6562 125.612C33.6562 125.777 33.8253 125.943 33.9944 125.943C34.1973 125.943 34.3326 125.777 34.3326 125.612C34.3326 125.413 34.1973 125.28 33.9944 125.28C33.8253 125.28 33.6562 125.413 33.6562 125.612Z" fill="black"/>
<path d="M29.4965 127.502C29.3612 127.601 29.2598 127.867 29.2598 128.066C29.2598 128.265 29.4288 128.232 29.6656 127.999C29.8685 127.8 29.9699 127.535 29.9023 127.436C29.8009 127.336 29.5979 127.369 29.4965 127.502Z" fill="black"/>
<path d="M36.5308 128.928C36.6322 129.094 36.9028 129.26 37.0719 129.26C37.2748 129.26 37.3086 129.094 37.2071 128.928C37.1057 128.729 36.8351 128.596 36.666 128.596C36.4631 128.596 36.4293 128.729 36.5308 128.928Z" fill="black"/>
<path d="M37.5453 133.24C37.4439 133.405 37.5791 133.571 37.8835 133.571C38.1879 133.571 38.3232 133.405 38.2217 133.24C38.1202 133.041 37.9511 132.908 37.8835 132.908C37.8159 132.908 37.6468 133.041 37.5453 133.24Z" fill="black"/>
<path d="M32.9798 134.268C32.9798 134.433 33.1489 134.5 33.318 134.4C33.5209 134.301 33.6562 134.135 33.6562 134.035C33.6562 133.969 33.5209 133.903 33.318 133.903C33.1489 133.903 32.9798 134.069 32.9798 134.268Z" fill="black"/>
<path d="M63.4842 135.594C63.5519 135.793 63.7548 135.926 63.9239 135.926C64.093 135.926 64.2959 135.793 64.3635 135.594C64.4311 135.395 64.2282 135.229 63.9239 135.229C63.6195 135.229 63.4166 135.395 63.4842 135.594Z" fill="black"/>
<path d="M36.0235 136.025C36.0235 136.092 36.2602 136.224 36.5308 136.357C36.8013 136.457 37.038 136.39 37.038 136.224C37.038 136.025 36.8013 135.893 36.5308 135.893C36.2602 135.893 36.0235 135.959 36.0235 136.025Z" fill="black"/>
<path d="M58.8511 137.551C58.7158 137.75 58.7496 138.082 58.9525 138.281C59.1554 138.48 59.3583 138.48 59.5274 138.214C59.6627 138.015 59.6289 137.684 59.426 137.485C59.2231 137.286 59.0202 137.286 58.8511 137.551Z" fill="black"/>
<path d="M65.5133 141.564C65.581 141.796 65.8515 142.061 66.0883 142.128C66.3588 142.227 66.4941 142.095 66.3926 141.829C66.325 141.597 66.0544 141.332 65.8177 141.265C65.5472 141.166 65.4119 141.299 65.5133 141.564Z" fill="black"/>
<path d="M40.4199 146.108C40.4199 146.273 40.6566 146.605 40.9272 146.837C41.1977 147.069 41.4345 147.102 41.4345 146.903C41.4345 146.738 41.1977 146.406 40.9272 146.174C40.6566 145.942 40.4199 145.909 40.4199 146.108Z" fill="black"/>
<path d="M75.5913 146.34C75.5913 146.605 75.7604 146.837 75.9295 146.837C76.1324 146.837 76.2676 146.605 76.2676 146.34C76.2676 146.074 76.1324 145.842 75.9295 145.842C75.7604 145.842 75.5913 146.074 75.5913 146.34Z" fill="black"/>
<path d="M42.9563 148.495C43.0578 148.661 43.2269 148.827 43.3283 148.827C43.3959 148.827 43.4636 148.661 43.4636 148.495C43.4636 148.296 43.2945 148.164 43.0916 148.164C42.9225 148.164 42.8549 148.296 42.9563 148.495Z" fill="black"/>
<path d="M58.682 150.187C58.682 150.353 58.8511 150.419 59.0202 150.319C59.2231 150.22 59.3583 150.054 59.3583 149.955C59.3583 149.888 59.2231 149.822 59.0202 149.822C58.8511 149.822 58.682 149.988 58.682 150.187Z" fill="black"/>
<path d="M53.271 152.144C53.271 152.309 53.4401 152.475 53.6092 152.475C53.8121 152.475 53.9473 152.309 53.9473 152.144C53.9473 151.945 53.8121 151.812 53.6092 151.812C53.4401 151.812 53.271 151.945 53.271 152.144Z" fill="black"/>
<path d="M54.7928 154.167C54.6575 154.366 54.7928 154.764 55.0972 155.062C55.6045 155.56 55.6383 155.56 55.6383 154.896C55.6383 154.067 55.131 153.636 54.7928 154.167Z" fill="black"/>
<path d="M126.996 64.2233C126.996 64.4223 127.165 64.6544 127.334 64.7539C127.537 64.8534 127.672 64.7207 127.672 64.4554C127.672 64.1569 127.537 63.9248 127.334 63.9248C127.165 63.9248 126.996 64.0574 126.996 64.2233Z" fill="black"/>
<path d="M129.87 66.578C129.633 66.976 129.938 67.5729 130.411 67.5729C130.58 67.5729 130.716 67.2744 130.716 66.9096C130.716 66.2132 130.208 66.0142 129.87 66.578Z" fill="black"/>
<path d="M124.628 69.2312C124.628 69.397 124.797 69.5628 124.966 69.5628C125.169 69.5628 125.305 69.397 125.305 69.2312C125.305 69.0322 125.169 68.8995 124.966 68.8995C124.797 68.8995 124.628 69.0322 124.628 69.2312Z" fill="black"/>
<path d="M124.527 73.7416C124.189 74.1064 124.628 74.5376 125.338 74.5376C125.677 74.5376 125.981 74.3054 125.981 74.0401C125.981 73.5426 124.933 73.3436 124.527 73.7416Z" fill="black"/>
<path d="M126.049 76.7596C126.218 77.5888 126.996 77.6883 126.996 76.8923C126.996 76.4943 126.793 76.1958 126.454 76.1958C126.15 76.1958 125.981 76.428 126.049 76.7596Z" fill="black"/>
<path d="M124.02 77.8209C123.681 78.0199 123.681 78.1526 124.087 78.4842C124.628 78.9153 125.068 78.5505 124.696 77.9536C124.561 77.7214 124.256 77.6882 124.02 77.8209Z" fill="black"/>
<path d="M117.865 81.3032C117.865 81.9665 118.034 82.1655 118.575 82.1655C119.082 82.1655 119.251 81.9997 119.15 81.4359C118.981 80.3083 117.865 80.2088 117.865 81.3032Z" fill="black"/>
<path d="M121.246 86.1453C121.246 86.3111 121.483 86.4769 121.754 86.4769C122.024 86.4769 122.261 86.3111 122.261 86.1453C122.261 85.9463 122.024 85.8136 121.754 85.8136C121.483 85.8136 121.246 85.9463 121.246 86.1453Z" fill="black"/>
<path d="M84.1136 101.434C84.1812 101.666 84.4517 101.932 84.6885 101.998C84.959 102.098 85.0943 101.965 84.9929 101.7C84.9252 101.468 84.6547 101.202 84.4179 101.136C84.1474 101.036 84.0121 101.169 84.1136 101.434Z" fill="black"/>
<path d="M126.725 104.685C126.793 104.917 126.962 105.082 127.097 105.082C127.503 105.049 127.401 104.585 126.996 104.419C126.759 104.353 126.624 104.486 126.725 104.685Z" fill="black"/>
<path d="M78.2968 106.21C78.2968 106.475 78.4659 106.708 78.6349 106.708C78.8379 106.708 78.9731 106.475 78.9731 106.21C78.9731 105.945 78.8379 105.713 78.6349 105.713C78.4659 105.713 78.2968 105.945 78.2968 106.21Z" fill="black"/>
<path d="M128.788 106.575C128.551 107.205 129.16 107.868 129.667 107.57C130.208 107.238 130.107 106.475 129.532 106.243C129.228 106.144 128.923 106.276 128.788 106.575Z" fill="black"/>
<path d="M97.9454 107.902C97.5396 108.399 97.2352 108.996 97.2352 109.261C97.2352 109.991 98.8247 111.351 99.704 111.351C101.53 111.351 102.24 109.062 100.854 107.769C99.8054 106.807 98.7909 106.84 97.9454 107.902Z" fill="black"/>
<path d="M64.0929 108.001C64.0929 108.399 64.2958 108.697 64.634 108.697C64.9384 108.697 65.1075 108.465 65.0399 108.134C64.8708 107.305 64.0929 107.205 64.0929 108.001Z" fill="black"/>
<path d="M88.5438 111.218C88.0365 112.014 88.0366 112.18 88.4762 112.976C89.0849 114.037 89.8966 114.236 90.9788 113.54C92.061 112.843 92.0948 111.55 91.0802 110.886C89.998 110.124 89.2202 110.223 88.5438 111.218Z" fill="black"/>
<path d="M129.701 112.014C129.701 112.18 129.938 112.346 130.208 112.346C130.479 112.346 130.716 112.18 130.716 112.014C130.716 111.815 130.479 111.682 130.208 111.682C129.938 111.682 129.701 111.815 129.701 112.014Z" fill="black"/>
<path d="M127.063 115.065C127.266 115.662 128.01 115.762 128.01 115.198C128.01 114.899 127.773 114.667 127.469 114.667C127.165 114.667 126.996 114.833 127.063 115.065Z" fill="black"/>
<path d="M89.2878 117.32C89.3893 117.486 89.5584 117.652 89.6598 117.652C89.7274 117.652 89.7951 117.486 89.7951 117.32C89.7951 117.121 89.626 116.989 89.4231 116.989C89.254 116.989 89.1863 117.121 89.2878 117.32Z" fill="black"/>
<path d="M71.8712 118.979C71.8712 119.144 72.0403 119.31 72.2432 119.31C72.4123 119.31 72.48 119.144 72.3785 118.979C72.2771 118.78 72.108 118.647 72.0065 118.647C71.9389 118.647 71.8712 118.78 71.8712 118.979Z" fill="black"/>
<path d="M70.5185 129.26C70.5185 129.691 70.6876 129.923 70.9581 129.824C71.161 129.757 71.364 129.492 71.364 129.26C71.364 129.028 71.161 128.762 70.9581 128.663C70.6876 128.596 70.5185 128.829 70.5185 129.26Z" fill="black"/>
<path d="M103.458 129.094C103.221 129.691 103.559 130.255 104.168 130.255C104.878 130.255 105.115 129.625 104.675 129.094C104.134 128.464 103.695 128.464 103.458 129.094Z" fill="black"/>
<path d="M174.003 63.8916C174.003 64.0574 174.24 64.2564 174.511 64.3891C174.781 64.4886 175.018 64.4223 175.018 64.2896C175.018 64.1238 174.781 63.9248 174.511 63.7921C174.24 63.6926 174.003 63.759 174.003 63.8916Z" fill="black"/>
<path d="M169.607 69.397C169.607 69.8613 170.453 70.2925 170.757 69.994C171.129 69.6292 170.96 69.2975 170.283 69.1317C169.878 69.0322 169.607 69.1317 169.607 69.397Z" fill="black"/>
<path d="M173.429 69.4633C172.921 69.6292 172.854 70.2261 173.293 70.2261C173.462 70.2261 173.665 69.994 173.801 69.7287C173.902 69.4633 173.936 69.2312 173.902 69.2643C173.868 69.2643 173.631 69.3638 173.429 69.4633Z" fill="black"/>
<path d="M174.714 73.0783C174.714 73.4431 174.815 73.5426 174.917 73.2773C175.018 73.0452 174.984 72.7467 174.883 72.6472C174.781 72.5145 174.68 72.7135 174.714 73.0783Z" fill="black"/>
<path d="M169.945 74.7034C170.351 75.2009 170.96 75.1014 170.96 74.5044C170.96 74.3386 170.622 74.2059 170.25 74.2059C169.641 74.2059 169.607 74.2722 169.945 74.7034Z" fill="black"/>
<path d="M178.4 75.8642C178.4 76.2953 178.772 76.2953 179.414 75.8642C179.82 75.5988 179.786 75.5325 179.178 75.5325C178.738 75.5325 178.4 75.6652 178.4 75.8642Z" fill="black"/>
<path d="M172.854 77.1576C172.718 77.3898 172.685 77.6551 172.786 77.7546C173.09 78.0531 173.429 77.6219 173.259 77.1576C173.124 76.7928 173.057 76.7928 172.854 77.1576Z" fill="black"/>
<path d="M176.303 77.9536C176.1 79.0148 176.371 79.0812 177.182 78.2189C177.554 77.8209 177.656 77.5224 177.419 77.3566C177.216 77.2571 177.047 77.4229 177.013 77.7546C177.013 78.2852 176.98 78.2852 176.743 77.6882C176.506 77.1244 176.472 77.1244 176.303 77.9536Z" fill="black"/>
<path d="M175.289 80.0761C175.525 80.1756 175.83 80.1425 175.931 80.043C176.066 79.9435 175.863 79.844 175.491 79.8771C175.119 79.8771 175.018 79.9766 175.289 80.0761Z" fill="black"/>
<path d="M172.008 80.5073C171.704 80.6731 171.839 80.8057 172.346 80.9384C173.293 81.1706 173.395 81.1374 172.82 80.6068C172.617 80.4078 172.211 80.3414 172.008 80.5073Z" fill="black"/>
<path d="M174.443 81.2369C174.511 81.469 174.781 81.668 175.018 81.668C175.255 81.668 175.525 81.469 175.627 81.2369C175.694 81.0047 175.458 80.8389 175.018 80.8389C174.578 80.8389 174.342 81.0047 174.443 81.2369Z" fill="black"/>
<path d="M169.945 81.8339C169.945 82.0329 170.182 82.265 170.453 82.3645C170.723 82.4972 170.96 82.7956 170.96 83.0941C170.96 83.3595 171.061 83.4921 171.197 83.3926C171.467 83.1273 170.622 81.5022 170.216 81.5022C170.081 81.5022 169.945 81.668 169.945 81.8339Z" fill="black"/>
<path d="M172.482 84.8187C172.346 85.0177 172.346 85.1503 172.448 85.1503C172.515 85.1503 172.82 85.2498 173.124 85.3493C173.429 85.4488 173.665 85.4157 173.665 85.2167C173.665 84.7524 172.718 84.4539 172.482 84.8187Z" fill="black"/>
<path d="M170.047 86.2116C169.979 86.8086 170.047 86.8749 170.283 86.4769C170.689 85.88 170.723 85.482 170.351 85.482C170.216 85.482 170.047 85.8136 170.047 86.2116Z" fill="black"/>
<path d="M179.414 88.102C179.414 88.301 179.584 88.5332 179.753 88.6327C179.956 88.7322 180.091 88.5995 180.091 88.3342C180.091 88.0357 179.956 87.8036 179.753 87.8036C179.584 87.8036 179.414 87.9362 179.414 88.102Z" fill="black"/>
<path d="M171.298 88.4669C171.298 88.6327 171.433 88.7985 171.602 88.7985C171.805 88.7985 172.042 88.6327 172.143 88.4669C172.245 88.2679 172.11 88.1352 171.839 88.1352C171.535 88.1352 171.298 88.2679 171.298 88.4669Z" fill="black"/>
<path d="M171.23 91.6839C171.467 91.7834 171.771 91.7502 171.873 91.6507C172.008 91.5512 171.805 91.4517 171.433 91.4849C171.061 91.4849 170.96 91.5844 171.23 91.6839Z" fill="black"/>
<path d="M168.795 95.73C168.694 95.8958 168.897 96.0948 169.235 96.1943C169.709 96.2938 169.844 96.2275 169.709 95.8958C169.506 95.3652 169.066 95.2988 168.795 95.73Z" fill="black"/>
<path d="M158.785 85.1172C158.785 85.3162 158.954 85.5483 159.123 85.6478C159.326 85.7473 159.461 85.6147 159.461 85.3493C159.461 85.0509 159.326 84.8187 159.123 84.8187C158.954 84.8187 158.785 84.9514 158.785 85.1172Z" fill="black"/>
<path d="M156.418 88.2679C156.418 88.3342 156.655 88.4669 156.925 88.5995C157.196 88.699 157.432 88.6327 157.432 88.4669C157.432 88.2679 157.196 88.1352 156.925 88.1352C156.655 88.1352 156.418 88.2015 156.418 88.2679Z" fill="black"/>
<path d="M157.771 88.6658C157.771 88.9312 157.94 89.0638 158.109 88.9643C158.312 88.8317 158.379 88.5995 158.278 88.4337C157.973 87.9694 157.771 88.0689 157.771 88.6658Z" fill="black"/>
<path d="M161.186 89.6608C161.186 90.0256 161.288 90.1251 161.389 89.8598C161.491 89.6276 161.457 89.3291 161.355 89.2296C161.254 89.097 161.152 89.296 161.186 89.6608Z" fill="black"/>
<path d="M155.471 91.8497C154.862 92.4467 154.964 92.7783 155.741 92.7783C156.181 92.7783 156.418 92.5461 156.418 92.115C156.418 91.3522 156.08 91.2527 155.471 91.8497Z" fill="black"/>
<path d="M159.833 93.6737C159.833 94.0717 159.901 94.1381 160.036 93.8064C160.205 93.4416 160.273 93.4416 160.544 93.8064C160.814 94.2044 160.848 94.2044 160.747 93.8064C160.544 93.0768 159.8 92.9773 159.833 93.6737Z" fill="black"/>
<path d="M157.601 95.0667C157.5 95.2325 157.568 95.4647 157.771 95.5973C157.94 95.6968 158.109 95.5641 158.109 95.2988C158.109 94.7019 157.906 94.6024 157.601 95.0667Z" fill="black"/>
<path d="M156.587 98.748C156.485 98.947 156.621 99.1791 156.925 99.2786C157.568 99.544 157.94 99.2786 157.601 98.7812C157.331 98.3169 156.857 98.3169 156.587 98.748Z" fill="black"/>
<path d="M159.461 101.368C159.461 101.7 160.476 102.164 160.713 101.932C160.814 101.832 160.78 101.633 160.645 101.434C160.375 101.003 159.461 100.937 159.461 101.368Z" fill="black"/>
<path d="M157.771 109.328C157.771 109.493 157.94 109.759 158.109 109.858C158.312 109.958 158.447 109.925 158.447 109.726C158.447 109.56 158.312 109.294 158.109 109.195C157.94 109.095 157.771 109.129 157.771 109.328Z" fill="black"/>
<path d="M151.007 112.014C151.007 112.213 151.244 112.346 151.514 112.346C151.785 112.346 152.021 112.279 152.021 112.213C152.021 112.147 151.785 112.014 151.514 111.881C151.244 111.782 151.007 111.848 151.007 112.014Z" fill="black"/>
<path d="M149.823 116.325C149.722 116.491 149.857 116.657 150.161 116.657C150.466 116.657 150.601 116.491 150.5 116.325C150.398 116.126 150.229 115.994 150.161 115.994C150.094 115.994 149.925 116.126 149.823 116.325Z" fill="black"/>
<path d="M147.625 119.974C147.895 120.139 148.301 120.305 148.47 120.305C148.673 120.305 148.572 120.139 148.301 119.974C148.031 119.808 147.659 119.642 147.456 119.642C147.287 119.642 147.354 119.808 147.625 119.974Z" fill="black"/>
<path d="M181.105 103.026C181.105 103.192 181.274 103.457 181.444 103.557C181.646 103.656 181.782 103.623 181.782 103.424C181.782 103.258 181.646 102.993 181.444 102.894C181.274 102.794 181.105 102.827 181.105 103.026Z" fill="black"/>
<path d="M174.68 111.019C174.68 111.185 174.849 111.351 175.052 111.351C175.221 111.351 175.289 111.185 175.187 111.019C175.086 110.82 174.917 110.687 174.815 110.687C174.747 110.687 174.68 110.82 174.68 111.019Z" fill="black"/>
<path d="M169.438 117.32C169.337 117.486 169.404 117.652 169.573 117.652C169.776 117.652 169.945 117.486 169.945 117.32C169.945 117.121 169.878 116.989 169.81 116.989C169.709 116.989 169.539 117.121 169.438 117.32Z" fill="black"/>
<path d="M170.419 130.421C170.317 130.686 170.317 131.051 170.453 131.25C170.825 131.813 171.636 131.614 171.636 130.951C171.636 130.188 170.655 129.757 170.419 130.421Z" fill="black"/>
<path d="M159.022 140.436C158.616 140.801 158.785 141.796 159.259 141.962C159.529 142.061 160.003 141.929 160.375 141.663C160.949 141.199 160.949 141.199 160.341 140.702C159.597 140.138 159.36 140.105 159.022 140.436Z" fill="black"/>
<path d="M152.495 152.276C152.224 152.973 152.596 153.47 153.408 153.47C153.915 153.47 154.084 153.271 153.983 152.741C153.848 151.845 152.799 151.513 152.495 152.276Z" fill="black"/>
<path d="M140.692 154.432C140.591 154.598 140.658 154.83 140.861 154.963C141.03 155.062 141.199 154.929 141.199 154.664C141.199 154.067 140.996 153.968 140.692 154.432Z" fill="black"/>
<path d="M157.297 155.626C157.432 155.891 157.669 156.123 157.838 156.123C158.041 156.123 158.007 155.924 157.771 155.626C157.534 155.361 157.297 155.128 157.229 155.128C157.162 155.128 157.196 155.361 157.297 155.626Z" fill="black"/>
<path d="M136.803 159.44C136.803 160.07 137.479 160.335 137.919 159.871C138.19 159.639 137.547 158.777 137.107 158.777C136.938 158.777 136.803 159.075 136.803 159.44Z" fill="black"/>
<path d="M130.039 163.386C130.039 163.585 130.208 163.818 130.377 163.917C130.58 164.017 130.716 163.884 130.716 163.619C130.716 163.32 130.58 163.088 130.377 163.088C130.208 163.088 130.039 163.221 130.039 163.386Z" fill="black"/>
<path d="M74.5767 163.718C74.5767 163.884 74.3062 163.983 74.0018 163.95C73.2916 163.917 73.0549 164.978 73.5622 165.741C73.8665 166.172 73.968 166.172 74.3738 165.642C74.6105 165.343 75.0502 165.078 75.3207 165.078C76.1324 165.078 76.3015 164.68 75.6927 164.017C75.1178 163.386 74.5767 163.221 74.5767 163.718Z" fill="black"/>
<path d="M71.533 165.542C71.533 166.504 72.0065 166.869 72.7167 166.471C73.1902 166.239 73.1563 166.106 72.6152 165.476C71.7698 164.547 71.533 164.547 71.533 165.542Z" fill="black"/>
<path d="M112.115 165.907C111.574 166.205 111.473 166.371 111.811 166.404C112.082 166.404 112.623 166.172 112.995 165.907C113.806 165.31 113.231 165.277 112.115 165.907Z" fill="black"/>
<path d="M75.1855 166.172C74.6782 166.57 74.7458 166.637 75.6251 167.035C76.2 167.267 76.7411 167.366 76.8426 167.267C76.9778 167.167 76.8087 167.068 76.4706 167.068C76.0309 167.068 75.9295 166.902 76.0986 166.404C76.3353 165.642 76.0309 165.575 75.1855 166.172Z" fill="black"/>
<path d="M131.46 166.305C131.121 166.438 131.121 166.57 131.426 166.935C131.933 167.532 132.407 167.532 132.407 166.935C132.407 166.338 132.035 166.106 131.46 166.305Z" fill="black"/>
<path d="M108.598 166.736C108.091 166.902 108.057 167.035 108.362 167.2C108.598 167.366 108.97 167.3 109.173 167.101C109.647 166.637 109.376 166.438 108.598 166.736Z" fill="black"/>
<path d="M73.0887 167.632C72.7843 168.328 73.1902 168.66 73.596 168.063C73.8665 167.632 74.0018 167.665 74.5429 168.295L75.1855 169.025L75.3207 168.262C75.4222 167.698 75.3545 167.499 75.0502 167.632C74.8134 167.698 74.34 167.632 73.968 167.433C73.4269 167.167 73.2578 167.2 73.0887 167.632Z" fill="black"/>
<path d="M106.028 167.399C106.028 167.565 105.724 167.731 105.318 167.731C104.439 167.731 98.96 169.621 98.2836 170.152C97.8778 170.484 97.8439 170.451 98.0807 170.086C98.4865 169.422 96.5927 169.92 95.781 170.683C95.2061 171.247 95.2061 171.28 95.781 171.777C96.3559 172.275 96.4912 172.242 97.7425 171.446C98.4865 170.981 99.4334 170.616 99.8392 170.683C100.211 170.716 100.651 170.583 100.786 170.384C101.158 169.82 103.458 168.991 103.593 169.389C103.796 169.953 104.269 169.754 104.202 169.124C104.168 168.726 104.439 168.56 105.115 168.527C105.656 168.494 106.4 168.162 106.806 167.764L107.516 167.068H106.772C106.366 167.068 106.028 167.2 106.028 167.399Z" fill="black"/>
<path d="M76.1662 169.854C76.0309 170.185 75.9971 170.55 76.0986 170.65C76.4029 170.948 76.6735 170.451 76.5382 169.82C76.4368 169.257 76.4029 169.257 76.1662 169.854Z" fill="black"/>
<path d="M72.8858 170.417C72.8858 170.583 73.0549 170.65 73.224 170.55C73.4269 170.451 73.5622 170.285 73.5622 170.185C73.5622 170.119 73.4269 170.053 73.224 170.053C73.0549 170.053 72.8858 170.218 72.8858 170.417Z" fill="black"/>
<path d="M93.8533 171.014C93.8533 171.213 93.6166 171.28 93.3461 171.18C93.0755 171.048 92.8388 171.147 92.8388 171.379C92.8388 171.611 92.6359 171.711 92.3653 171.611C92.1286 171.512 91.5875 171.645 91.1817 171.943C90.6068 172.308 90.5391 172.54 90.8097 172.872C91.114 173.203 91.4184 173.236 92.1962 172.971C92.7373 172.805 93.177 172.507 93.177 172.374C93.177 172.208 93.5152 172.043 93.9548 171.976C94.7326 171.877 94.9694 171.014 94.293 170.782C94.0563 170.716 93.8533 170.815 93.8533 171.014Z" fill="black"/>
<path d="M127.841 171.048C127.942 171.213 128.112 171.379 128.213 171.379C128.281 171.379 128.348 171.213 128.348 171.048C128.348 170.849 128.179 170.716 127.976 170.716C127.807 170.716 127.74 170.849 127.841 171.048Z" fill="black"/>
<path d="M139.779 114.07C140.083 114.369 140.286 114.369 140.591 114.07C140.895 113.772 140.827 113.672 140.185 113.672C139.542 113.672 139.475 113.772 139.779 114.07Z" fill="black"/>
<path d="M131.899 119.642C132.001 119.808 132.17 119.974 132.271 119.974C132.339 119.974 132.407 119.808 132.407 119.642C132.407 119.443 132.237 119.31 132.035 119.31C131.865 119.31 131.798 119.443 131.899 119.642Z" fill="black"/>
<path d="M122.937 127.601C122.937 127.767 123.174 127.933 123.445 127.933C123.715 127.933 123.952 127.767 123.952 127.601C123.952 127.403 123.715 127.27 123.445 127.27C123.174 127.27 122.937 127.403 122.937 127.601Z" fill="black"/>
<path d="M113.13 136.457C113.13 136.622 113.367 137.054 113.637 137.418C114.043 137.949 114.111 137.949 114.145 137.518C114.145 137.219 113.908 136.788 113.637 136.556C113.367 136.324 113.13 136.291 113.13 136.457Z" fill="black"/>
<path d="M109.917 138.878C110.019 139.043 110.188 139.209 110.289 139.209C110.357 139.209 110.424 139.043 110.424 138.878C110.424 138.679 110.255 138.546 110.052 138.546C109.883 138.546 109.816 138.679 109.917 138.878Z" fill="black"/>
<path d="M156.418 121.599C156.418 121.764 156.655 121.997 156.959 122.096C157.771 122.395 157.872 122.328 157.297 121.798C156.722 121.234 156.418 121.167 156.418 121.599Z" fill="black"/>
<path d="M130.073 140.735C130.073 141.1 130.175 141.199 130.276 140.934C130.377 140.702 130.344 140.403 130.242 140.304C130.141 140.171 130.039 140.37 130.073 140.735Z" fill="black"/>
<path d="M119.353 143.023C118.778 143.454 118.778 143.488 119.285 143.521C119.589 143.521 119.961 143.355 120.063 143.156C120.435 142.592 120.063 142.493 119.353 143.023Z" fill="black"/>
<path d="M125.203 146.141C125.068 146.704 125.508 147.169 126.184 147.169C126.522 147.169 126.285 146.207 125.846 145.875C125.474 145.577 125.338 145.643 125.203 146.141Z" fill="black"/>
<path d="M105.216 151.646C106.062 152.276 106.569 152.276 106.028 151.646C105.791 151.381 105.352 151.149 105.081 151.149C104.641 151.149 104.675 151.248 105.216 151.646Z" fill="black"/>
<path d="M102.984 151.812C102.984 151.978 103.153 152.144 103.323 152.144C103.525 152.144 103.661 151.978 103.661 151.812C103.661 151.613 103.525 151.48 103.323 151.48C103.153 151.48 102.984 151.613 102.984 151.812Z" fill="black"/>
<path d="M110.086 151.779C110.086 151.945 110.323 152.144 110.56 152.243C110.898 152.376 110.999 152.276 110.864 151.945C110.661 151.447 110.086 151.314 110.086 151.779Z" fill="black"/>
<path d="M100.583 152.575C98.7908 154.067 98.2497 154.465 98.2497 154.299C98.2497 154.2 97.8777 154.366 97.4043 154.664C96.9308 154.963 96.5588 155.427 96.5588 155.725C96.5588 156.156 96.6264 156.157 97.1675 155.759C97.4719 155.493 98.2836 155.029 98.9261 154.697C100.042 154.167 102.308 152.309 102.308 151.945C102.308 151.58 101.361 151.911 100.583 152.575Z" fill="black"/>
<path d="M108.159 153.205C107.55 153.636 107.043 154.1 107.043 154.233C107.043 154.531 108.936 153.304 109.241 152.807C109.545 152.309 109.342 152.409 108.159 153.205Z" fill="black"/>
<path d="M106.4 154.664C106.4 155.029 106.502 155.128 106.603 154.863C106.704 154.631 106.671 154.332 106.569 154.233C106.468 154.1 106.366 154.299 106.4 154.664Z" fill="black"/>
<path d="M105.149 155.493C104.506 156.223 104.506 156.223 105.284 155.825C105.69 155.626 106.028 155.294 106.028 155.128C106.028 154.631 105.859 154.73 105.149 155.493Z" fill="black"/>
<path d="M95.2061 156.123C95.2061 156.289 95.3752 156.455 95.5443 156.455C95.7472 156.455 95.8825 156.289 95.8825 156.123C95.8825 155.924 95.7472 155.792 95.5443 155.792C95.3752 155.792 95.2061 155.924 95.2061 156.123Z" fill="black"/>
<path d="M102.139 157.151C102.004 157.35 101.699 157.417 101.463 157.317C101.226 157.251 100.921 157.384 100.82 157.649C100.549 158.379 100.549 158.412 101.226 158.213C101.767 158.08 102.917 156.787 102.511 156.787C102.409 156.787 102.24 156.952 102.139 157.151Z" fill="black"/>
<path d="M103.661 157.151C103.661 157.317 103.83 157.384 103.999 157.284C104.202 157.185 104.337 157.019 104.337 156.919C104.337 156.853 104.202 156.787 103.999 156.787C103.83 156.787 103.661 156.952 103.661 157.151Z" fill="black"/>
<path d="M97.5734 157.483C97.1675 157.782 97.1675 157.815 97.7086 157.649C98.0468 157.516 98.5541 157.616 98.7908 157.815C99.1967 158.146 99.2305 158.113 99.0614 157.649C98.8247 157.052 98.2836 156.986 97.5734 157.483Z" fill="black"/>
<path d="M83.7077 151.414C83.7077 151.58 84.0798 151.812 84.5532 151.878C85.0267 151.978 85.3987 151.911 85.3987 151.779C85.3987 151.613 85.2634 151.48 85.0943 151.48C84.9252 151.48 84.5532 151.381 84.2488 151.281C83.9445 151.182 83.7077 151.215 83.7077 151.414Z" fill="black"/>
<path d="M199.266 66.18C198.928 66.5448 198.793 66.9428 198.962 67.0423C199.367 67.2745 200.145 66.4122 199.976 65.9147C199.909 65.6825 199.604 65.8152 199.266 66.18Z" fill="black"/>
<path d="M197.541 68.6342C197.203 69.1317 196.831 69.5628 196.628 69.5628C196.459 69.5628 196.324 69.8281 196.324 70.1598C196.324 70.4914 196.222 70.8894 196.087 71.0221C195.58 71.4864 194.7 74.2059 195.005 74.3717C195.411 74.6371 197.677 70.3588 197.677 69.2975C197.677 69.0322 197.778 68.8995 197.913 68.999C198.184 69.2975 199.029 68.601 199.029 68.0704C199.029 67.3408 198.082 67.6724 197.541 68.6342Z" fill="black"/>
<path d="M37.038 178.841C36.666 179.272 36.666 179.438 37.038 179.77C37.3762 180.068 37.41 180.068 37.2071 179.704C37.0719 179.438 37.1395 179.14 37.41 178.974C37.6468 178.841 37.782 178.609 37.6806 178.51C37.5453 178.41 37.2748 178.576 37.038 178.841Z" fill="black"/>
<path d="M35.3471 179.14C35.3471 179.405 35.5162 179.737 35.6853 179.836C35.8882 179.936 36.0235 179.737 36.0235 179.372C36.0235 178.974 35.8882 178.676 35.6853 178.676C35.5162 178.676 35.3471 178.874 35.3471 179.14Z" fill="black"/>
<path d="M31.3565 179.737C30.9169 180.168 30.8154 181.329 31.2212 181.329C31.3565 181.329 31.4918 180.997 31.5256 180.632C31.6271 179.637 31.8638 179.505 32.5063 180.035C33.0136 180.433 33.0813 180.433 32.9122 180.002C32.7092 179.339 31.8976 179.206 31.3565 179.737Z" fill="black"/>
<path d="M33.9944 179.969C33.7576 180.466 33.7576 180.665 33.9944 180.665C34.4002 180.665 34.8398 179.737 34.5693 179.471C34.4678 179.372 34.2311 179.604 33.9944 179.969Z" fill="black"/>
<path d="M28.9554 181.859C28.9554 182.224 29.0568 182.324 29.1583 182.058C29.2598 181.826 29.2259 181.528 29.1245 181.428C29.023 181.296 28.9216 181.495 28.9554 181.859Z" fill="black"/>
</svg>
